solid CCFL Mounting Clip
facet normal 0.179680321943375 -0.137873560235878 0.974015330112524
outer loop
vertex 57.5038740539349 -0.777778576093466 16.3476954302959
vertex 55.2822333668157 -0.282090755796343 16.8276954302959
vertex 54.8841967250679 -0.800822206642579 16.8276954302959
endloop
endfacet
facet normal -0.965925826289074 -0.258819045102498 -3.59409804860927e-17
outer loop
vertex 63.5552158648562 -3.28432642473242 16.3476954302959
vertex 63.6958740539348 -4.35273144291562 4.82769543029595
vertex 63.6958740539348 -4.35273144291562 16.3476954302959
endloop
endfacet
facet normal -1.0 -2.15648859474653e-14 1.82320702746622e-17
outer loop
vertex 63.6958740539348 -4.35273144291562 4.82769543029595
vertex 63.5552158648562 -3.28432642473242 16.3476954302959
vertex 63.5552158648562 -3.28432642473242 4.82769543029594
endloop
endfacet
facet normal 4.95457710197967e-15 1.0 -3.97944874369426e-16
outer loop
vertex 59.5678740539348 -8.48073144291561 4.82769543029595
vertex 60.6362790721181 -8.34007325383689 16.3476954302959
vertex 60.6362790721181 -8.3400732538369 4.82769543029595
endloop
endfacet
facet normal -0.258819045102526 0.965925826289067 -2.70443868049603e-16
outer loop
vertex 60.6362790721181 -8.34007325383689 16.3476954302959
vertex 59.5678740539348 -8.48073144291561 4.82769543029595
vertex 59.5678740539348 -8.4807314429156 16.3476954302959
endloop
endfacet
facet normal 0.103224940178394 -0.249207050553821 0.962933257126075
outer loop
vertex 57.5038740539349 -0.777778576093466 16.3476954302959
vertex 57.9719597833198 1.2708235148188 16.8276954302959
vertex 56.524874053935 0.671420979791009 16.8276954302959
endloop
endfacet
facet normal 0.0706047635494089 -0.259768579973074 0.963086316081225
outer loop
vertex 57.9719597833198 1.2708235148188 16.8276954302959
vertex 57.5038740539349 -0.777778576093466 16.3476954302959
vertex 58.4994690357517 -0.365389631994349 16.3476954302959
endloop
endfacet
facet normal -0.866025403784425 -0.500000000000024 1.74333526704758e-17
outer loop
vertex 63.142826920757 -2.28873144291563 16.3476954302959
vertex 63.5552158648562 -3.28432642473242 4.82769543029594
vertex 63.5552158648562 -3.28432642473242 16.3476954302959
endloop
endfacet
facet normal -0.965925826289074 -0.258819045102499 -3.59409804860928e-17
outer loop
vertex 63.5552158648562 -3.28432642473242 4.82769543029594
vertex 63.142826920757 -2.28873144291563 16.3476954302959
vertex 63.142826920757 -2.28873144291563 4.82769543029595
endloop
endfacet
facet normal -0.121608216876056 0.992578179081238 -6.1365325395102e-17
outer loop
vertex 54.8841967250679 -8.24864067918872 16.8276954302959
vertex 57.5038740539348 -7.92768430973778 4.82769543029595
vertex 54.8841967250679 -8.24864067918872 4.82769543029595
endloop
endfacet
facet normal -0.121608216876056 0.992578179081238 -6.1365325395102e-17
outer loop
vertex 57.5038740539348 -7.92768430973778 4.82769543029595
vertex 54.8841967250679 -8.24864067918872 16.8276954302959
vertex 57.5038740539348 -7.92768430973778 16.3476954302959
endloop
endfacet
facet normal 1.32300043715505e-16 6.80902946058866e-16 1.0
outer loop
vertex 67.9094411606799 -10.0401643361707 16.8276954302959
vertex 67.7248740539349 -4.52473144291564 16.8276954302959
vertex 66.6698759044163 -8.42473144291563 16.8276954302959
endloop
endfacet
facet normal 1.32300043715505e-16 6.80902946058866e-16 1.0
outer loop
vertex 67.7248740539349 -4.52473144291564 16.8276954302959
vertex 67.9094411606799 -10.0401643361707 16.8276954302959
vertex 67.9190968440872 -6.0 16.827695430296
endloop
endfacet
facet normal 1.32300043715505e-16 6.80902946058866e-16 1.0
outer loop
vertex 67.9190968440872 -6.0 16.827695430296
vertex 67.9094411606799 -10.0401643361707 16.8276954302959
vertex 69.5248740539349 -11.2797295924342 16.827695430296
endloop
endfacet
facet normal 1.32300043715505e-16 6.80902946058866e-16 1.0
outer loop
vertex 67.9190968440872 -6.0 16.827695430296
vertex 69.5248740539349 -11.2797295924342 16.827695430296
vertex 68.4885292523636 -7.37473144291562 16.827695430296
endloop
endfacet
facet normal 1.32300043715505e-16 6.80902946058866e-16 1.0
outer loop
vertex 68.4885292523636 -7.37473144291562 16.827695430296
vertex 69.5248740539349 -11.2797295924342 16.827695430296
vertex 69.3943654011717 -8.55524009567894 16.827695430296
endloop
endfacet
facet normal 1.32300043715505e-16 6.80902946058866e-16 1.0
outer loop
vertex 69.3943654011717 -8.55524009567894 16.827695430296
vertex 69.5248740539349 -11.2797295924342 16.827695430296
vertex 70.5748740539349 -9.46107624448694 16.8276954302959
endloop
endfacet
facet normal 1.32300043715505e-16 6.80902946058866e-16 1.0
outer loop
vertex 70.5748740539349 -9.46107624448694 16.8276954302959
vertex 69.5248740539349 -11.2797295924342 16.827695430296
vertex 71.4060855021353 -12.0589528879704 16.8276954302959
endloop
endfacet
facet normal 1.32300043715505e-16 6.80902946058866e-16 1.0
outer loop
vertex 70.5748740539349 -9.46107624448694 16.8276954302959
vertex 71.4060855021353 -12.0589528879704 16.8276954302959
vertex 71.9496054968506 -10.0305086527633 16.8276954302959
endloop
endfacet
facet normal 1.32300043715505e-16 6.80902946058866e-16 1.0
outer loop
vertex 71.9496054968506 -10.0305086527633 16.8276954302959
vertex 71.4060855021353 -12.0589528879704 16.8276954302959
vertex 73.424874053935 -12.3247314429156 16.827695430296
endloop
endfacet
facet normal 1.32300043715505e-16 6.80902946058866e-16 1.0
outer loop
vertex 71.9496054968506 -10.0305086527633 16.8276954302959
vertex 73.424874053935 -12.3247314429156 16.827695430296
vertex 73.424874053935 -10.2247314429156 16.827695430296
endloop
endfacet
facet normal 1.32300043715505e-16 6.80902946058866e-16 1.0
outer loop
vertex 73.424874053935 -10.2247314429156 16.827695430296
vertex 73.424874053935 -12.3247314429156 16.827695430296
vertex 74.9001426110193 -10.0305086527633 16.827695430296
endloop
endfacet
facet normal 1.32300043715505e-16 6.80902946058866e-16 1.0
outer loop
vertex 74.9001426110193 -10.0305086527633 16.827695430296
vertex 73.424874053935 -12.3247314429156 16.827695430296
vertex 75.4436626057347 -12.0589528879704 16.8276954302959
endloop
endfacet
facet normal 1.32300043715505e-16 6.80902946058866e-16 1.0
outer loop
vertex 74.9001426110193 -10.0305086527633 16.827695430296
vertex 75.4436626057347 -12.0589528879704 16.8276954302959
vertex 76.2748740539349 -9.4610762444869 16.8276954302959
endloop
endfacet
facet normal 1.32300043715505e-16 6.80902946058866e-16 1.0
outer loop
vertex 76.2748740539349 -9.4610762444869 16.8276954302959
vertex 75.4436626057347 -12.0589528879704 16.8276954302959
vertex 77.3248740539349 -11.2797295924342 16.827695430296
endloop
endfacet
facet normal 1.32300043715505e-16 6.80902946058866e-16 1.0
outer loop
vertex 76.2748740539349 -9.4610762444869 16.8276954302959
vertex 77.3248740539349 -11.2797295924342 16.827695430296
vertex 77.4553827066983 -8.55524009567894 16.827695430296
endloop
endfacet
facet normal 1.32300043715505e-16 6.80902946058866e-16 1.0
outer loop
vertex 77.4553827066983 -8.55524009567894 16.827695430296
vertex 77.3248740539349 -11.2797295924342 16.827695430296
vertex 78.94030694719 -10.0401643361707 16.8276954302959
endloop
endfacet
facet normal 1.32300043715505e-16 6.80902946058866e-16 1.0
outer loop
vertex 77.4553827066983 -8.55524009567894 16.827695430296
vertex 78.94030694719 -10.0401643361707 16.8276954302959
vertex 80.0797293920235 -8.55524009567893 16.827695430296
endloop
endfacet
facet normal 1.32300043715505e-16 6.80902946058866e-16 1.0
outer loop
vertex 64.1296678095814 -8.34494012317518 16.827695430296
vertex 64.3536542099159 -0.870840792904107 16.827695430296
vertex 64.1296678095814 -0.704522762656077 16.8276954302959
endloop
endfacet
facet normal 1.32300043715505e-16 6.80902946058866e-16 1.0
outer loop
vertex 64.3536542099159 -0.870840792904107 16.827695430296
vertex 64.1296678095814 -8.34494012317518 16.827695430296
vertex 64.3536542099158 -8.17862209292714 16.827695430296
endloop
endfacet
facet normal 1.32300043715505e-16 6.80902946058866e-16 1.0
outer loop
vertex 64.3536542099159 -0.870840792904107 16.827695430296
vertex 64.3536542099158 -8.17862209292714 16.827695430296
vertex 64.5998372126083 -8.0473760495364 16.8276954302959
endloop
endfacet
facet normal 1.32300043715505e-16 6.80902946058866e-16 1.0
outer loop
vertex 64.3536542099159 -0.870840792904107 16.827695430296
vertex 64.5998372126083 -8.0473760495364 16.8276954302959
vertex 64.5998372126082 -1.00208683629485 16.8276954302959
endloop
endfacet
facet normal 1.32300043715505e-16 6.80902946058866e-16 1.0
outer loop
vertex 64.5998372126082 -1.00208683629485 16.8276954302959
vertex 64.5998372126083 -8.0473760495364 16.8276954302959
vertex 64.8627677749236 -1.09535587789456 16.8276954302959
endloop
endfacet
facet normal 1.32300043715505e-16 6.80902946058866e-16 1.0
outer loop
vertex 64.8627677749236 -1.09535587789456 16.8276954302959
vertex 64.5998372126083 -8.0473760495364 16.8276954302959
vertex 64.8627677749236 -7.95410700793671 16.827695430296
endloop
endfacet
facet normal 1.32300043715505e-16 6.80902946058866e-16 1.0
outer loop
vertex 64.8627677749236 -1.09535587789456 16.8276954302959
vertex 64.8627677749236 -7.95410700793671 16.827695430296
vertex 65.1366261617268 -7.90087939576103 16.8276954302959
endloop
endfacet
facet normal 1.32300043715505e-16 6.80902946058866e-16 1.0
outer loop
vertex 64.8627677749236 -1.09535587789456 16.8276954302959
vertex 65.1366261617268 -7.90087939576103 16.8276954302959
vertex 65.1366261617268 -1.14858349007023 16.8276954302959
endloop
endfacet
facet normal 1.32300043715505e-16 6.80902946058866e-16 1.0
outer loop
vertex 65.1366261617268 -1.14858349007023 16.8276954302959
vertex 65.1366261617268 -7.90087939576103 16.8276954302959
vertex 65.4153507601659 -7.88887135906435 16.8276954302959
endloop
endfacet
facet normal 1.32300043715505e-16 6.80902946058866e-16 1.0
outer loop
vertex 65.1366261617268 -1.14858349007023 16.8276954302959
vertex 65.4153507601659 -7.88887135906435 16.8276954302959
vertex 65.415350760166 -1.16059152676688 16.827695430296
endloop
endfacet
facet normal 1.32300043715505e-16 6.80902946058866e-16 1.0
outer loop
vertex 65.415350760166 -1.16059152676688 16.827695430296
vertex 65.4153507601659 -7.88887135906435 16.8276954302959
vertex 65.6927722481043 -7.91834868510417 16.8276954302959
endloop
endfacet
facet normal 1.32300043715505e-16 6.80902946058866e-16 1.0
outer loop
vertex 65.415350760166 -1.16059152676688 16.827695430296
vertex 65.6927722481043 -7.91834868510417 16.8276954302959
vertex 65.6927722481043 -1.13111420072705 16.8276954302959
endloop
endfacet
facet normal 1.32300043715505e-16 6.80902946058866e-16 1.0
outer loop
vertex 65.6927722481043 -1.13111420072705 16.8276954302959
vertex 65.6927722481043 -7.91834868510417 16.8276954302959
vertex 65.9627501466019 -1.06080396645633 16.8276954302959
endloop
endfacet
facet normal 1.32300043715505e-16 6.80902946058866e-16 1.0
outer loop
vertex 65.9627501466019 -1.06080396645633 16.8276954302959
vertex 65.6927722481043 -7.91834868510417 16.8276954302959
vertex 65.9627501466019 -7.98865891937493 16.827695430296
endloop
endfacet
facet normal 1.32300043715505e-16 6.80902946058866e-16 1.0
outer loop
vertex 65.9627501466019 -1.06080396645633 16.8276954302959
vertex 65.9627501466019 -7.98865891937493 16.827695430296
vertex 66.2193087339787 -8.09824580711059 16.8276954302959
endloop
endfacet
facet normal 1.32300043715505e-16 6.80902946058866e-16 1.0
outer loop
vertex 65.9627501466019 -1.06080396645633 16.8276954302959
vertex 66.2193087339787 -8.09824580711059 16.8276954302959
vertex 66.2193087339787 -0.951217078720668 16.8276954302959
endloop
endfacet
facet normal 1.32300043715505e-16 6.80902946058866e-16 1.0
outer loop
vertex 66.2193087339787 -0.951217078720668 16.8276954302959
vertex 66.2193087339787 -8.09824580711059 16.8276954302959
vertex 66.4567693131218 -8.24468373960564 16.8276954302959
endloop
endfacet
facet normal 1.32300043715505e-16 6.80902946058866e-16 1.0
outer loop
vertex 66.2193087339787 -0.951217078720668 16.8276954302959
vertex 66.4567693131218 -8.24468373960564 16.8276954302959
vertex 66.4567693131217 -0.804779146225594 16.8276954302959
endloop
endfacet
facet normal 1.32300043715505e-16 6.80902946058866e-16 1.0
outer loop
vertex 66.4567693131217 -0.804779146225594 16.8276954302959
vertex 66.4567693131218 -8.24468373960564 16.8276954302959
vertex 66.6698759044162 -0.624731442915631 16.8276954302959
endloop
endfacet
facet normal 1.32300043715505e-16 6.80902946058866e-16 1.0
outer loop
vertex 66.6698759044162 -0.624731442915631 16.8276954302959
vertex 66.4567693131218 -8.24468373960564 16.8276954302959
vertex 66.6698759044163 -8.42473144291563 16.8276954302959
endloop
endfacet
facet normal 1.32300043715505e-16 6.80902946058866e-16 1.0
outer loop
vertex 66.6698759044162 -0.624731442915631 16.8276954302959
vertex 66.6698759044163 -8.42473144291563 16.8276954302959
vertex 67.9094411606799 0.990701450339456 16.8276954302959
endloop
endfacet
facet normal 1.32300043715505e-16 6.80902946058866e-16 1.0
outer loop
vertex 67.9094411606799 0.990701450339456 16.8276954302959
vertex 66.6698759044163 -8.42473144291563 16.8276954302959
vertex 67.7248740539349 -4.52473144291564 16.8276954302959
endloop
endfacet
facet normal 1.32300043715505e-16 6.80902946058866e-16 1.0
outer loop
vertex 67.9094411606799 0.990701450339456 16.8276954302959
vertex 67.7248740539349 -4.52473144291564 16.8276954302959
vertex 67.9190968440872 -3.04946288583126 16.8276954302959
endloop
endfacet
facet normal 1.32300043715505e-16 6.80902946058866e-16 1.0
outer loop
vertex 67.9094411606799 0.990701450339456 16.8276954302959
vertex 67.9190968440872 -3.04946288583126 16.8276954302959
vertex 69.524874053935 2.23026670660303 16.827695430296
endloop
endfacet
facet normal 1.32300043715505e-16 6.80902946058866e-16 1.0
outer loop
vertex 69.524874053935 2.23026670660303 16.827695430296
vertex 67.9190968440872 -3.04946288583126 16.8276954302959
vertex 68.4885292523635 -1.67473144291564 16.8276954302959
endloop
endfacet
facet normal 1.32300043715505e-16 6.80902946058866e-16 1.0
outer loop
vertex 69.524874053935 2.23026670660303 16.827695430296
vertex 68.4885292523635 -1.67473144291564 16.8276954302959
vertex 69.3943654011716 -0.494222790152302 16.8276954302959
endloop
endfacet
facet normal 1.32300043715505e-16 6.80902946058866e-16 1.0
outer loop
vertex 69.524874053935 2.23026670660303 16.827695430296
vertex 69.3943654011716 -0.494222790152302 16.8276954302959
vertex 70.574874053935 0.411613358655679 16.8276954302959
endloop
endfacet
facet normal 1.32300043715505e-16 6.80902946058866e-16 1.0
outer loop
vertex 69.524874053935 2.23026670660303 16.827695430296
vertex 70.574874053935 0.411613358655679 16.8276954302959
vertex 71.4060855021353 3.00949000213915 16.8276954302959
endloop
endfacet
facet normal 1.32300043715505e-16 6.80902946058866e-16 1.0
outer loop
vertex 71.4060855021353 3.00949000213915 16.8276954302959
vertex 70.574874053935 0.411613358655679 16.8276954302959
vertex 71.9496054968505 0.981045766932033 16.8276954302959
endloop
endfacet
facet normal 1.32300043715505e-16 6.80902946058866e-16 1.0
outer loop
vertex 71.4060855021353 3.00949000213915 16.8276954302959
vertex 71.9496054968505 0.981045766932033 16.8276954302959
vertex 73.4248740539349 3.27526855708437 16.8276954302959
endloop
endfacet
facet normal 1.32300043715505e-16 6.80902946058866e-16 1.0
outer loop
vertex 73.4248740539349 3.27526855708437 16.8276954302959
vertex 71.9496054968505 0.981045766932033 16.8276954302959
vertex 73.4248740539349 1.17526855708438 16.8276954302959
endloop
endfacet
facet normal 1.32300043715505e-16 6.80902946058866e-16 1.0
outer loop
vertex 73.4248740539349 3.27526855708437 16.8276954302959
vertex 73.4248740539349 1.17526855708438 16.8276954302959
vertex 75.4436626057347 3.00949000213909 16.8276954302959
endloop
endfacet
facet normal 1.32300043715505e-16 6.80902946058866e-16 1.0
outer loop
vertex 75.4436626057347 3.00949000213909 16.8276954302959
vertex 73.4248740539349 1.17526855708438 16.8276954302959
vertex 74.9001426110193 0.981045766932072 16.8276954302959
endloop
endfacet
facet normal 1.32300043715505e-16 6.80902946058866e-16 1.0
outer loop
vertex 75.4436626057347 3.00949000213909 16.8276954302959
vertex 74.9001426110193 0.981045766932072 16.8276954302959
vertex 76.274874053935 0.411613358655679 16.8276954302959
endloop
endfacet
facet normal 1.32300043715505e-16 6.80902946058866e-16 1.0
outer loop
vertex 75.4436626057347 3.00949000213909 16.8276954302959
vertex 76.274874053935 0.411613358655679 16.8276954302959
vertex 77.3248740539349 2.23026670660299 16.827695430296
endloop
endfacet
facet normal 1.32300043715505e-16 6.80902946058866e-16 1.0
outer loop
vertex 77.3248740539349 2.23026670660299 16.827695430296
vertex 76.274874053935 0.411613358655679 16.8276954302959
vertex 77.4553827066982 -0.494222790152314 16.8276954302959
endloop
endfacet
facet normal 1.32300043715505e-16 6.80902946058866e-16 1.0
outer loop
vertex 77.3248740539349 2.23026670660299 16.827695430296
vertex 77.4553827066982 -0.494222790152314 16.8276954302959
vertex 78.94030694719 0.990701450339433 16.8276954302959
endloop
endfacet
facet normal 1.32300043715505e-16 6.80902946058866e-16 1.0
outer loop
vertex 78.94030694719 0.990701450339433 16.8276954302959
vertex 77.4553827066982 -0.494222790152314 16.8276954302959
vertex 80.0797293920235 -0.494222790152302 16.8276954302959
endloop
endfacet
facet normal -0.741913963929252 -4.98199769275318e-15 0.67049509329061
outer loop
vertex 64.1296678095814 -0.704522762656077 16.8276954302959
vertex 63.6958740539348 -4.35273144291562 16.3476954302959
vertex 64.1296678095814 -8.34494012317518 16.827695430296
endloop
endfacet
facet normal -0.186885646873214 0.119601345346251 0.975073983441332
outer loop
vertex 63.7675147410542 -8.76737213003491 16.8276954302959
vertex 63.6958740539348 -4.35273144291562 16.3476954302959
vertex 63.5552158648562 -5.42113646109883 16.3476954302959
endloop
endfacet
facet normal -0.186885646873214 0.119601345346251 0.975073983441332
outer loop
vertex 63.7675147410542 -8.76737213003491 16.8276954302959
vertex 63.5552158648562 -5.42113646109883 16.3476954302959
vertex 63.142826920757 -6.4167314429156 16.3476954302959
endloop
endfacet
facet normal -0.500000000000011 -0.866025403784432 4.08798863347129e-16
outer loop
vertex 61.6318740539348 -0.777778576093484 16.3476954302959
vertex 60.6362790721181 -0.365389631994339 4.82769543029594
vertex 61.6318740539348 -0.777778576093489 4.82769543029594
endloop
endfacet
facet normal -0.258819045102552 -0.96592582628906 4.96643978388158e-16
outer loop
vertex 60.6362790721181 -0.365389631994339 4.82769543029594
vertex 61.6318740539348 -0.777778576093484 16.3476954302959
vertex 60.6362790721181 -0.365389631994335 16.3476954302959
endloop
endfacet
facet normal -0.186885646873214 0.119601345346251 0.975073983441332
outer loop
vertex 63.7675147410542 -8.76737213003491 16.8276954302959
vertex 63.142826920757 -6.4167314429156 16.3476954302959
vertex 62.4868108466729 -7.27166823565368 16.3476954302959
endloop
endfacet
facet normal -1.21853774901807e-17 -4.73556834706161e-16 -1.0
outer loop
vertex 55.2822333668157 -0.282090755796341 4.82769543029594
vertex 57.5038740539349 -0.777778576093471 4.82769543029594
vertex 54.8841967250679 -0.800822206642584 4.82769543029594
endloop
endfacet
facet normal -1.21853774901807e-17 -4.73556834706161e-16 -1.0
outer loop
vertex 57.5038740539349 -0.777778576093471 4.82769543029594
vertex 55.2822333668157 -0.282090755796341 4.82769543029594
vertex 56.524874053935 0.671420979790995 4.82769543029594
endloop
endfacet
facet normal -1.21853774901807e-17 -4.73556834706161e-16 -1.0
outer loop
vertex 57.5038740539349 -0.777778576093471 4.82769543029594
vertex 56.524874053935 0.671420979790995 4.82769543029594
vertex 57.9719597833198 1.27082351481881 4.82769543029595
endloop
endfacet
facet normal -1.21853774901807e-17 -4.73556834706161e-16 -1.0
outer loop
vertex 57.5038740539349 -0.777778576093471 4.82769543029594
vertex 57.9719597833198 1.27082351481881 4.82769543029595
vertex 58.4994690357517 -0.365389631994352 4.82769543029595
endloop
endfacet
facet normal -1.21853774901807e-17 -4.73556834706161e-16 -1.0
outer loop
vertex 58.4994690357517 -0.365389631994352 4.82769543029595
vertex 57.9719597833198 1.27082351481881 4.82769543029595
vertex 59.5248740539349 1.47526855708434 4.82769543029594
endloop
endfacet
facet normal -1.21853774901807e-17 -4.73556834706161e-16 -1.0
outer loop
vertex 58.4994690357517 -0.365389631994352 4.82769543029595
vertex 59.5248740539349 1.47526855708434 4.82769543029594
vertex 59.5678740539349 -0.224731442915615 4.82769543029594
endloop
endfacet
facet normal -1.21853774901807e-17 -4.73556834706161e-16 -1.0
outer loop
vertex 59.5678740539349 -0.224731442915615 4.82769543029594
vertex 59.5248740539349 1.47526855708434 4.82769543029594
vertex 61.0777883245501 1.27082351481879 4.82769543029595
endloop
endfacet
facet normal -1.21853774901807e-17 -4.73556834706161e-16 -1.0
outer loop
vertex 59.5678740539349 -0.224731442915615 4.82769543029594
vertex 61.0777883245501 1.27082351481879 4.82769543029595
vertex 60.6362790721181 -0.365389631994339 4.82769543029594
endloop
endfacet
facet normal -1.21853774901807e-17 -4.73556834706161e-16 -1.0
outer loop
vertex 60.6362790721181 -0.365389631994339 4.82769543029594
vertex 61.0777883245501 1.27082351481879 4.82769543029595
vertex 61.6318740539348 -0.777778576093489 4.82769543029594
endloop
endfacet
facet normal -1.21853774901807e-17 -4.73556834706161e-16 -1.0
outer loop
vertex 61.6318740539348 -0.777778576093489 4.82769543029594
vertex 61.0777883245501 1.27082351481879 4.82769543029595
vertex 62.5248740539349 0.671420979790963 4.82769543029594
endloop
endfacet
facet normal -1.21853774901807e-17 -4.73556834706161e-16 -1.0
outer loop
vertex 61.6318740539348 -0.777778576093489 4.82769543029594
vertex 62.5248740539349 0.671420979790963 4.82769543029594
vertex 62.4868108466729 -1.43379465017755 4.82769543029595
endloop
endfacet
facet normal -1.21853774901807e-17 -4.73556834706161e-16 -1.0
outer loop
vertex 62.4868108466729 -1.43379465017755 4.82769543029595
vertex 62.5248740539349 0.671420979790963 4.82769543029594
vertex 63.142826920757 -2.28873144291563 4.82769543029595
endloop
endfacet
facet normal -1.21853774901807e-17 -4.73556834706161e-16 -1.0
outer loop
vertex 63.142826920757 -2.28873144291563 4.82769543029595
vertex 62.5248740539349 0.671420979790963 4.82769543029594
vertex 63.7675147410541 -0.28209075579637 4.82769543029595
endloop
endfacet
facet normal -1.21853774901807e-17 -4.73556834706161e-16 -1.0
outer loop
vertex 63.142826920757 -2.28873144291563 4.82769543029595
vertex 63.7675147410541 -0.28209075579637 4.82769543029595
vertex 63.5552158648562 -3.28432642473242 4.82769543029594
endloop
endfacet
facet normal -1.21853774901807e-17 -4.73556834706161e-16 -1.0
outer loop
vertex 63.5552158648562 -3.28432642473242 4.82769543029594
vertex 63.7675147410541 -0.28209075579637 4.82769543029595
vertex 63.6958740539348 -4.35273144291562 4.82769543029595
endloop
endfacet
facet normal -1.21853774901807e-17 -4.73556834706161e-16 -1.0
outer loop
vertex 57.5038740539348 -7.92768430973778 4.82769543029595
vertex 55.2822333668157 -8.76737213003488 4.82769543029595
vertex 54.8841967250679 -8.24864067918872 4.82769543029595
endloop
endfacet
facet normal -1.21853774901807e-17 -4.73556834706161e-16 -1.0
outer loop
vertex 55.2822333668157 -8.76737213003488 4.82769543029595
vertex 57.5038740539348 -7.92768430973778 4.82769543029595
vertex 56.5248740539349 -9.72088386562227 4.82769543029595
endloop
endfacet
facet normal -1.21853774901807e-17 -4.73556834706161e-16 -1.0
outer loop
vertex 56.5248740539349 -9.72088386562227 4.82769543029595
vertex 57.5038740539348 -7.92768430973778 4.82769543029595
vertex 57.9719597833198 -10.32028640065 4.82769543029595
endloop
endfacet
facet normal -1.21853774901807e-17 -4.73556834706161e-16 -1.0
outer loop
vertex 57.9719597833198 -10.32028640065 4.82769543029595
vertex 57.5038740539348 -7.92768430973778 4.82769543029595
vertex 58.4994690357517 -8.34007325383689 4.82769543029595
endloop
endfacet
facet normal -1.21853774901807e-17 -4.73556834706161e-16 -1.0
outer loop
vertex 57.9719597833198 -10.32028640065 4.82769543029595
vertex 58.4994690357517 -8.34007325383689 4.82769543029595
vertex 59.5248740539349 -10.5247314429156 4.82769543029595
endloop
endfacet
facet normal -1.21853774901807e-17 -4.73556834706161e-16 -1.0
outer loop
vertex 59.5248740539349 -10.5247314429156 4.82769543029595
vertex 58.4994690357517 -8.34007325383689 4.82769543029595
vertex 59.5678740539348 -8.48073144291561 4.82769543029595
endloop
endfacet
facet normal -1.21853774901807e-17 -4.73556834706161e-16 -1.0
outer loop
vertex 59.5248740539349 -10.5247314429156 4.82769543029595
vertex 59.5678740539348 -8.48073144291561 4.82769543029595
vertex 61.07778832455 -10.32028640065 4.82769543029595
endloop
endfacet
facet normal -1.21853774901807e-17 -4.73556834706161e-16 -1.0
outer loop
vertex 61.07778832455 -10.32028640065 4.82769543029595
vertex 59.5678740539348 -8.48073144291561 4.82769543029595
vertex 60.6362790721181 -8.3400732538369 4.82769543029595
endloop
endfacet
facet normal -1.21853774901807e-17 -4.73556834706161e-16 -1.0
outer loop
vertex 61.07778832455 -10.32028640065 4.82769543029595
vertex 60.6362790721181 -8.3400732538369 4.82769543029595
vertex 61.6318740539348 -7.92768430973777 4.82769543029595
endloop
endfacet
facet normal -1.21853774901807e-17 -4.73556834706161e-16 -1.0
outer loop
vertex 61.07778832455 -10.32028640065 4.82769543029595
vertex 61.6318740539348 -7.92768430973777 4.82769543029595
vertex 62.5248740539349 -9.72088386562226 4.82769543029595
endloop
endfacet
facet normal -1.21853774901807e-17 -4.73556834706161e-16 -1.0
outer loop
vertex 62.5248740539349 -9.72088386562226 4.82769543029595
vertex 61.6318740539348 -7.92768430973777 4.82769543029595
vertex 62.4868108466729 -7.27166823565369 4.82769543029595
endloop
endfacet
facet normal -1.21853774901807e-17 -4.73556834706161e-16 -1.0
outer loop
vertex 62.5248740539349 -9.72088386562226 4.82769543029595
vertex 62.4868108466729 -7.27166823565369 4.82769543029595
vertex 63.142826920757 -6.41673144291561 4.82769543029595
endloop
endfacet
facet normal -1.21853774901807e-17 -4.73556834706161e-16 -1.0
outer loop
vertex 62.5248740539349 -9.72088386562226 4.82769543029595
vertex 63.142826920757 -6.41673144291561 4.82769543029595
vertex 63.7675147410542 -8.76737213003491 4.82769543029595
endloop
endfacet
facet normal -1.21853774901807e-17 -4.73556834706161e-16 -1.0
outer loop
vertex 63.7675147410542 -8.76737213003491 4.82769543029595
vertex 63.142826920757 -6.41673144291561 4.82769543029595
vertex 63.5552158648562 -5.42113646109882 4.82769543029595
endloop
endfacet
facet normal -1.21853774901807e-17 -4.73556834706161e-16 -1.0
outer loop
vertex 63.7675147410542 -8.76737213003491 4.82769543029595
vertex 63.5552158648562 -5.42113646109882 4.82769543029595
vertex 63.6958740539348 -4.35273144291562 4.82769543029595
endloop
endfacet
facet normal -1.21853774901807e-17 -4.73556834706161e-16 -1.0
outer loop
vertex 63.7675147410542 -8.76737213003491 4.82769543029595
vertex 63.6958740539348 -4.35273144291562 4.82769543029595
vertex 63.7675147410541 -0.28209075579637 4.82769543029595
endloop
endfacet
facet normal -1.21853774901807e-17 -4.73556834706161e-16 -1.0
outer loop
vertex 63.7675147410542 -8.76737213003491 4.82769543029595
vertex 63.7675147410541 -0.28209075579637 4.82769543029595
vertex 64.1296678095814 -0.704522762656077 4.82769543029595
endloop
endfacet
facet normal -1.21853774901807e-17 -4.73556834706161e-16 -1.0
outer loop
vertex 63.7675147410542 -8.76737213003491 4.82769543029595
vertex 64.1296678095814 -0.704522762656077 4.82769543029595
vertex 64.1296678095814 -8.34494012317519 4.82769543029595
endloop
endfacet
facet normal -1.21853774901807e-17 -4.73556834706161e-16 -1.0
outer loop
vertex 64.1296678095814 -8.34494012317519 4.82769543029595
vertex 64.1296678095814 -0.704522762656077 4.82769543029595
vertex 64.3536542099159 -0.870840792904119 4.82769543029594
endloop
endfacet
facet normal -1.21853774901807e-17 -4.73556834706161e-16 -1.0
outer loop
vertex 64.1296678095814 -8.34494012317519 4.82769543029595
vertex 64.3536542099159 -0.870840792904119 4.82769543029594
vertex 64.3536542099158 -8.17862209292714 4.82769543029595
endloop
endfacet
facet normal -1.21853774901807e-17 -4.73556834706161e-16 -1.0
outer loop
vertex 64.3536542099158 -8.17862209292714 4.82769543029595
vertex 64.3536542099159 -0.870840792904119 4.82769543029594
vertex 64.5998372126083 -8.04737604953641 4.82769543029595
endloop
endfacet
facet normal -1.21853774901807e-17 -4.73556834706161e-16 -1.0
outer loop
vertex 64.5998372126083 -8.04737604953641 4.82769543029595
vertex 64.3536542099159 -0.870840792904119 4.82769543029594
vertex 64.5998372126082 -1.00208683629486 4.82769543029594
endloop
endfacet
facet normal -1.21853774901807e-17 -4.73556834706161e-16 -1.0
outer loop
vertex 64.5998372126083 -8.04737604953641 4.82769543029595
vertex 64.5998372126082 -1.00208683629486 4.82769543029594
vertex 64.8627677749236 -1.09535587789456 4.82769543029594
endloop
endfacet
facet normal -1.21853774901807e-17 -4.73556834706161e-16 -1.0
outer loop
vertex 64.5998372126083 -8.04737604953641 4.82769543029595
vertex 64.8627677749236 -1.09535587789456 4.82769543029594
vertex 64.8627677749236 -7.95410700793672 4.82769543029595
endloop
endfacet
facet normal -1.21853774901807e-17 -4.73556834706161e-16 -1.0
outer loop
vertex 64.8627677749236 -7.95410700793672 4.82769543029595
vertex 64.8627677749236 -1.09535587789456 4.82769543029594
vertex 65.1366261617268 -7.90087939576103 4.82769543029595
endloop
endfacet
facet normal -1.21853774901807e-17 -4.73556834706161e-16 -1.0
outer loop
vertex 65.1366261617268 -7.90087939576103 4.82769543029595
vertex 64.8627677749236 -1.09535587789456 4.82769543029594
vertex 65.1366261617268 -1.14858349007024 4.82769543029595
endloop
endfacet
facet normal -1.21853774901807e-17 -4.73556834706161e-16 -1.0
outer loop
vertex 65.1366261617268 -7.90087939576103 4.82769543029595
vertex 65.1366261617268 -1.14858349007024 4.82769543029595
vertex 65.4153507601659 -7.88887135906435 4.82769543029595
endloop
endfacet
facet normal -1.21853774901807e-17 -4.73556834706161e-16 -1.0
outer loop
vertex 65.4153507601659 -7.88887135906435 4.82769543029595
vertex 65.1366261617268 -1.14858349007024 4.82769543029595
vertex 65.415350760166 -1.16059152676689 4.82769543029595
endloop
endfacet
facet normal -1.21853774901807e-17 -4.73556834706161e-16 -1.0
outer loop
vertex 65.4153507601659 -7.88887135906435 4.82769543029595
vertex 65.415350760166 -1.16059152676689 4.82769543029595
vertex 65.6927722481043 -7.91834868510418 4.82769543029594
endloop
endfacet
facet normal -1.21853774901807e-17 -4.73556834706161e-16 -1.0
outer loop
vertex 65.6927722481043 -7.91834868510418 4.82769543029594
vertex 65.415350760166 -1.16059152676689 4.82769543029595
vertex 65.6927722481043 -1.13111420072706 4.82769543029594
endloop
endfacet
facet normal -1.21853774901807e-17 -4.73556834706161e-16 -1.0
outer loop
vertex 65.6927722481043 -7.91834868510418 4.82769543029594
vertex 65.6927722481043 -1.13111420072706 4.82769543029594
vertex 65.9627501466019 -1.06080396645633 4.82769543029594
endloop
endfacet
facet normal -1.21853774901807e-17 -4.73556834706161e-16 -1.0
outer loop
vertex 65.6927722481043 -7.91834868510418 4.82769543029594
vertex 65.9627501466019 -1.06080396645633 4.82769543029594
vertex 65.9627501466019 -7.98865891937495 4.82769543029595
endloop
endfacet
facet normal -1.21853774901807e-17 -4.73556834706161e-16 -1.0
outer loop
vertex 65.9627501466019 -7.98865891937495 4.82769543029595
vertex 65.9627501466019 -1.06080396645633 4.82769543029594
vertex 66.2193087339787 -0.951217078720666 4.82769543029595
endloop
endfacet
facet normal -1.21853774901807e-17 -4.73556834706161e-16 -1.0
outer loop
vertex 65.9627501466019 -7.98865891937495 4.82769543029595
vertex 66.2193087339787 -0.951217078720666 4.82769543029595
vertex 66.2193087339787 -8.09824580711059 4.82769543029595
endloop
endfacet
facet normal -1.21853774901807e-17 -4.73556834706161e-16 -1.0
outer loop
vertex 66.2193087339787 -8.09824580711059 4.82769543029595
vertex 66.2193087339787 -0.951217078720666 4.82769543029595
vertex 66.4567693131217 -0.804779146225604 4.82769543029594
endloop
endfacet
facet normal -1.21853774901807e-17 -4.73556834706161e-16 -1.0
outer loop
vertex 66.2193087339787 -8.09824580711059 4.82769543029595
vertex 66.4567693131217 -0.804779146225604 4.82769543029594
vertex 66.4567693131218 -8.24468373960564 4.82769543029595
endloop
endfacet
facet normal -1.21853774901807e-17 -4.73556834706161e-16 -1.0
outer loop
vertex 66.4567693131218 -8.24468373960564 4.82769543029595
vertex 66.4567693131217 -0.804779146225604 4.82769543029594
vertex 66.6698759044162 -0.624731442915631 4.82769543029594
endloop
endfacet
facet normal -1.21853774901807e-17 -4.73556834706161e-16 -1.0
outer loop
vertex 66.4567693131218 -8.24468373960564 4.82769543029595
vertex 66.6698759044162 -0.624731442915631 4.82769543029594
vertex 66.6698759044163 -8.42473144291564 4.82769543029595
endloop
endfacet
facet normal -1.21853774901807e-17 -4.73556834706161e-16 -1.0
outer loop
vertex 66.6698759044163 -8.42473144291564 4.82769543029595
vertex 66.6698759044162 -0.624731442915631 4.82769543029594
vertex 67.9094411606799 0.990701450339452 4.82769543029594
endloop
endfacet
facet normal -1.21853774901807e-17 -4.73556834706161e-16 -1.0
outer loop
vertex 66.6698759044163 -8.42473144291564 4.82769543029595
vertex 67.9094411606799 0.990701450339452 4.82769543029594
vertex 67.7248740539349 -4.52473144291564 4.82769543029595
endloop
endfacet
facet normal -1.21853774901807e-17 -4.73556834706161e-16 -1.0
outer loop
vertex 67.7248740539349 -4.52473144291564 4.82769543029595
vertex 67.9094411606799 0.990701450339452 4.82769543029594
vertex 67.9190968440872 -3.04946288583126 4.82769543029595
endloop
endfacet
facet normal -1.21853774901807e-17 -4.73556834706161e-16 -1.0
outer loop
vertex 67.9190968440872 -3.04946288583126 4.82769543029595
vertex 67.9094411606799 0.990701450339452 4.82769543029594
vertex 69.524874053935 2.23026670660302 4.82769543029594
endloop
endfacet
facet normal -1.21853774901807e-17 -4.73556834706161e-16 -1.0
outer loop
vertex 67.9190968440872 -3.04946288583126 4.82769543029595
vertex 69.524874053935 2.23026670660302 4.82769543029594
vertex 68.4885292523635 -1.67473144291564 4.82769543029594
endloop
endfacet
facet normal -1.21853774901807e-17 -4.73556834706161e-16 -1.0
outer loop
vertex 68.4885292523635 -1.67473144291564 4.82769543029594
vertex 69.524874053935 2.23026670660302 4.82769543029594
vertex 69.3943654011716 -0.494222790152307 4.82769543029594
endloop
endfacet
facet normal -1.21853774901807e-17 -4.73556834706161e-16 -1.0
outer loop
vertex 69.3943654011716 -0.494222790152307 4.82769543029594
vertex 69.524874053935 2.23026670660302 4.82769543029594
vertex 70.574874053935 0.411613358655674 4.82769543029594
endloop
endfacet
facet normal -1.21853774901807e-17 -4.73556834706161e-16 -1.0
outer loop
vertex 70.574874053935 0.411613358655674 4.82769543029594
vertex 69.524874053935 2.23026670660302 4.82769543029594
vertex 71.4060855021353 3.00949000213914 4.82769543029594
endloop
endfacet
facet normal -1.21853774901807e-17 -4.73556834706161e-16 -1.0
outer loop
vertex 70.574874053935 0.411613358655674 4.82769543029594
vertex 71.4060855021353 3.00949000213914 4.82769543029594
vertex 71.9496054968505 0.981045766932033 4.82769543029594
endloop
endfacet
facet normal -1.21853774901807e-17 -4.73556834706161e-16 -1.0
outer loop
vertex 71.9496054968505 0.981045766932033 4.82769543029594
vertex 71.4060855021353 3.00949000213914 4.82769543029594
vertex 73.4248740539349 3.27526855708437 4.82769543029594
endloop
endfacet
facet normal -1.21853774901807e-17 -4.73556834706161e-16 -1.0
outer loop
vertex 71.9496054968505 0.981045766932033 4.82769543029594
vertex 73.4248740539349 3.27526855708437 4.82769543029594
vertex 73.4248740539349 1.17526855708439 4.82769543029594
endloop
endfacet
facet normal -1.21853774901807e-17 -4.73556834706161e-16 -1.0
outer loop
vertex 73.4248740539349 1.17526855708439 4.82769543029594
vertex 73.4248740539349 3.27526855708437 4.82769543029594
vertex 75.4436626057347 3.00949000213909 4.82769543029594
endloop
endfacet
facet normal -1.21853774901807e-17 -4.73556834706161e-16 -1.0
outer loop
vertex 73.4248740539349 1.17526855708439 4.82769543029594
vertex 75.4436626057347 3.00949000213909 4.82769543029594
vertex 74.9001426110193 0.981045766932072 4.82769543029594
endloop
endfacet
facet normal -1.21853774901807e-17 -4.73556834706161e-16 -1.0
outer loop
vertex 74.9001426110193 0.981045766932072 4.82769543029594
vertex 75.4436626057347 3.00949000213909 4.82769543029594
vertex 76.274874053935 0.411613358655674 4.82769543029594
endloop
endfacet
facet normal -1.21853774901807e-17 -4.73556834706161e-16 -1.0
outer loop
vertex 76.274874053935 0.411613358655674 4.82769543029594
vertex 75.4436626057347 3.00949000213909 4.82769543029594
vertex 77.3248740539349 2.23026670660297 4.82769543029594
endloop
endfacet
facet normal -1.21853774901807e-17 -4.73556834706161e-16 -1.0
outer loop
vertex 76.274874053935 0.411613358655674 4.82769543029594
vertex 77.3248740539349 2.23026670660297 4.82769543029594
vertex 77.4553827066982 -0.494222790152324 4.82769543029594
endloop
endfacet
facet normal -1.21853774901807e-17 -4.73556834706161e-16 -1.0
outer loop
vertex 77.4553827066982 -0.494222790152324 4.82769543029594
vertex 77.3248740539349 2.23026670660297 4.82769543029594
vertex 78.94030694719 0.99070145033943 4.82769543029594
endloop
endfacet
facet normal -1.21853774901807e-17 -4.73556834706161e-16 -1.0
outer loop
vertex 77.4553827066982 -0.494222790152324 4.82769543029594
vertex 78.94030694719 0.99070145033943 4.82769543029594
vertex 80.0797293920235 -0.494222790152311 4.82769543029595
endloop
endfacet
facet normal -1.21853774901807e-17 -4.73556834706161e-16 -1.0
outer loop
vertex 67.7248740539349 -4.52473144291564 4.82769543029595
vertex 67.9094411606799 -10.0401643361707 4.82769543029595
vertex 66.6698759044163 -8.42473144291564 4.82769543029595
endloop
endfacet
facet normal -1.21853774901807e-17 -4.73556834706161e-16 -1.0
outer loop
vertex 67.9094411606799 -10.0401643361707 4.82769543029595
vertex 67.7248740539349 -4.52473144291564 4.82769543029595
vertex 67.9190968440872 -6.0 4.82769543029595
endloop
endfacet
facet normal -1.21853774901807e-17 -4.73556834706161e-16 -1.0
outer loop
vertex 67.9094411606799 -10.0401643361707 4.82769543029595
vertex 67.9190968440872 -6.0 4.82769543029595
vertex 69.5248740539349 -11.2797295924343 4.82769543029595
endloop
endfacet
facet normal -1.21853774901807e-17 -4.73556834706161e-16 -1.0
outer loop
vertex 69.5248740539349 -11.2797295924343 4.82769543029595
vertex 67.9190968440872 -6.0 4.82769543029595
vertex 68.4885292523636 -7.37473144291562 4.82769543029595
endloop
endfacet
facet normal -1.21853774901807e-17 -4.73556834706161e-16 -1.0
outer loop
vertex 69.5248740539349 -11.2797295924343 4.82769543029595
vertex 68.4885292523636 -7.37473144291562 4.82769543029595
vertex 69.3943654011717 -8.55524009567894 4.82769543029595
endloop
endfacet
facet normal -1.21853774901807e-17 -4.73556834706161e-16 -1.0
outer loop
vertex 69.5248740539349 -11.2797295924343 4.82769543029595
vertex 69.3943654011717 -8.55524009567894 4.82769543029595
vertex 70.5748740539349 -9.46107624448695 4.82769543029595
endloop
endfacet
facet normal -1.21853774901807e-17 -4.73556834706161e-16 -1.0
outer loop
vertex 69.5248740539349 -11.2797295924343 4.82769543029595
vertex 70.5748740539349 -9.46107624448695 4.82769543029595
vertex 71.4060855021353 -12.0589528879704 4.82769543029595
endloop
endfacet
facet normal -1.21853774901807e-17 -4.73556834706161e-16 -1.0
outer loop
vertex 71.4060855021353 -12.0589528879704 4.82769543029595
vertex 70.5748740539349 -9.46107624448695 4.82769543029595
vertex 71.9496054968506 -10.0305086527633 4.82769543029595
endloop
endfacet
facet normal -1.21853774901807e-17 -4.73556834706161e-16 -1.0
outer loop
vertex 71.4060855021353 -12.0589528879704 4.82769543029595
vertex 71.9496054968506 -10.0305086527633 4.82769543029595
vertex 73.424874053935 -12.3247314429156 4.82769543029595
endloop
endfacet
facet normal -1.21853774901807e-17 -4.73556834706161e-16 -1.0
outer loop
vertex 73.424874053935 -12.3247314429156 4.82769543029595
vertex 71.9496054968506 -10.0305086527633 4.82769543029595
vertex 73.424874053935 -10.2247314429156 4.82769543029595
endloop
endfacet
facet normal -1.21853774901807e-17 -4.73556834706161e-16 -1.0
outer loop
vertex 73.424874053935 -12.3247314429156 4.82769543029595
vertex 73.424874053935 -10.2247314429156 4.82769543029595
vertex 74.9001426110193 -10.0305086527633 4.82769543029595
endloop
endfacet
facet normal -1.21853774901807e-17 -4.73556834706161e-16 -1.0
outer loop
vertex 73.424874053935 -12.3247314429156 4.82769543029595
vertex 74.9001426110193 -10.0305086527633 4.82769543029595
vertex 75.4436626057347 -12.0589528879704 4.82769543029595
endloop
endfacet
facet normal -1.21853774901807e-17 -4.73556834706161e-16 -1.0
outer loop
vertex 75.4436626057347 -12.0589528879704 4.82769543029595
vertex 74.9001426110193 -10.0305086527633 4.82769543029595
vertex 76.2748740539349 -9.4610762444869 4.82769543029595
endloop
endfacet
facet normal -1.21853774901807e-17 -4.73556834706161e-16 -1.0
outer loop
vertex 75.4436626057347 -12.0589528879704 4.82769543029595
vertex 76.2748740539349 -9.4610762444869 4.82769543029595
vertex 77.3248740539349 -11.2797295924342 4.82769543029595
endloop
endfacet
facet normal -1.21853774901807e-17 -4.73556834706161e-16 -1.0
outer loop
vertex 77.3248740539349 -11.2797295924342 4.82769543029595
vertex 76.2748740539349 -9.4610762444869 4.82769543029595
vertex 77.4553827066983 -8.55524009567894 4.82769543029595
endloop
endfacet
facet normal -1.21853774901807e-17 -4.73556834706161e-16 -1.0
outer loop
vertex 77.3248740539349 -11.2797295924342 4.82769543029595
vertex 77.4553827066983 -8.55524009567894 4.82769543029595
vertex 78.94030694719 -10.0401643361707 4.82769543029595
endloop
endfacet
facet normal -1.21853774901807e-17 -4.73556834706161e-16 -1.0
outer loop
vertex 78.94030694719 -10.0401643361707 4.82769543029595
vertex 77.4553827066983 -8.55524009567894 4.82769543029595
vertex 80.0797293920235 -8.55524009567894 4.82769543029595
endloop
endfacet
facet normal -0.14436992374569 0.188146547700535 0.971472182672275
outer loop
vertex 62.5248740539349 -9.72088386562226 16.827695430296
vertex 62.4868108466729 -7.27166823565368 16.3476954302959
vertex 61.6318740539348 -7.92768430973777 16.3476954302959
endloop
endfacet
facet normal -0.14436992374569 0.188146547700535 0.971472182672275
outer loop
vertex 62.4868108466729 -7.27166823565368 16.3476954302959
vertex 62.5248740539349 -9.72088386562226 16.827695430296
vertex 63.7675147410542 -8.76737213003491 16.8276954302959
endloop
endfacet
facet normal -0.0893740166927219 0.215767963223329 0.972345859859888
outer loop
vertex 61.07778832455 -10.32028640065 16.8276954302959
vertex 61.6318740539348 -7.92768430973777 16.3476954302959
vertex 60.6362790721181 -8.34007325383689 16.3476954302959
endloop
endfacet
facet normal -0.0893740166927219 0.215767963223329 0.972345859859888
outer loop
vertex 61.6318740539348 -7.92768430973777 16.3476954302959
vertex 61.07778832455 -10.32028640065 16.8276954302959
vertex 62.5248740539349 -9.72088386562226 16.827695430296
endloop
endfacet
facet normal -0.0301631513602101 0.229111880997091 0.972932644269888
outer loop
vertex 61.07778832455 -10.32028640065 16.8276954302959
vertex 59.5678740539348 -8.4807314429156 16.3476954302959
vertex 59.5248740539349 -10.5247314429156 16.8276954302959
endloop
endfacet
facet normal -0.000441689815495209 0.228623347513046 0.973514853447052
outer loop
vertex 59.5678740539348 -8.4807314429156 16.3476954302959
vertex 61.07778832455 -10.32028640065 16.8276954302959
vertex 60.6362790721181 -8.34007325383689 16.3476954302959
endloop
endfacet
facet normal 0.000347873049601084 0.228607613930735 0.973518586282377
outer loop
vertex 59.5248740539349 -10.5247314429156 16.8276954302959
vertex 58.4994690357517 -8.34007325383689 16.3476954302959
vertex 57.9719597833198 -10.32028640065 16.8276954302959
endloop
endfacet
facet normal 0.0590550630477816 0.220278706628676 0.973647672895293
outer loop
vertex 58.4994690357517 -8.34007325383689 16.3476954302959
vertex 59.5248740539349 -10.5247314429156 16.8276954302959
vertex 59.5678740539348 -8.4807314429156 16.3476954302959
endloop
endfacet
facet normal 0.0590024032148978 0.220292738998875 0.973647690676273
outer loop
vertex 57.9719597833198 -10.32028640065 16.8276954302959
vertex 57.5038740539348 -7.92768430973778 16.3476954302959
vertex 56.5248740539349 -9.72088386562228 16.8276954302959
endloop
endfacet
facet normal 0.0880031988928908 0.212458516299435 0.973199268308634
outer loop
vertex 57.5038740539348 -7.92768430973778 16.3476954302959
vertex 57.9719597833198 -10.32028640065 16.8276954302959
vertex 58.4994690357517 -8.34007325383689 16.3476954302959
endloop
endfacet
facet normal 0.161395530775336 -0.210334750769591 0.964215108398765
outer loop
vertex 57.5038740539349 -0.777778576093466 16.3476954302959
vertex 56.524874053935 0.671420979791009 16.8276954302959
vertex 55.2822333668157 -0.282090755796343 16.8276954302959
endloop
endfacet
facet normal 0.140828547292837 0.183531336052373 0.972873871040959
outer loop
vertex 57.5038740539348 -7.92768430973778 16.3476954302959
vertex 55.2822333668157 -8.76737213003488 16.827695430296
vertex 56.5248740539349 -9.72088386562228 16.8276954302959
endloop
endfacet
facet normal 0.163871589037046 0.125743092831161 0.978434860842421
outer loop
vertex 57.5038740539348 -7.92768430973778 16.3476954302959
vertex 54.8841967250679 -8.24864067918872 16.8276954302959
vertex 55.2822333668157 -8.76737213003488 16.827695430296
endloop
endfacet
facet normal -0.122830657096111 0.105303335576395 0.986825129997115
outer loop
vertex 64.1296678095814 -8.34494012317518 16.827695430296
vertex 63.6958740539348 -4.35273144291562 16.3476954302959
vertex 63.7675147410542 -8.76737213003491 16.8276954302959
endloop
endfacet
facet normal 0.382683432365074 0.923879532511293 6.39715838988884e-19
outer loop
vertex 57.5038740539348 -7.92768430973778 4.82769543029595
vertex 58.4994690357517 -8.34007325383689 16.3476954302959
vertex 58.4994690357517 -8.34007325383689 4.82769543029595
endloop
endfacet
facet normal 0.25881904510251 0.965925826289071 -1.83155723638253e-16
outer loop
vertex 58.4994690357517 -8.34007325383689 16.3476954302959
vertex 57.5038740539348 -7.92768430973778 4.82769543029595
vertex 57.5038740539348 -7.92768430973778 16.3476954302959
endloop
endfacet
facet normal -0.70710678118653 0.707106781186565 -4.77300592854091e-16
outer loop
vertex 62.4868108466729 -7.27166823565368 16.3476954302959
vertex 63.142826920757 -6.41673144291561 4.82769543029595
vertex 62.4868108466729 -7.27166823565369 4.82769543029595
endloop
endfacet
facet normal -0.866025403784414 0.500000000000043 -3.16231786295169e-16
outer loop
vertex 63.142826920757 -6.41673144291561 4.82769543029595
vertex 62.4868108466729 -7.27166823565368 16.3476954302959
vertex 63.142826920757 -6.4167314429156 16.3476954302959
endloop
endfacet
facet normal -0.50000000000001 0.866025403784433 -2.52110717189314e-16
outer loop
vertex 61.6318740539348 -7.92768430973777 16.3476954302959
vertex 62.4868108466729 -7.27166823565369 4.82769543029595
vertex 61.6318740539348 -7.92768430973777 4.82769543029595
endloop
endfacet
facet normal -0.707106781186529 0.707106781186566 -4.7730059285409e-16
outer loop
vertex 62.4868108466729 -7.27166823565369 4.82769543029595
vertex 61.6318740539348 -7.92768430973777 16.3476954302959
vertex 62.4868108466729 -7.27166823565368 16.3476954302959
endloop
endfacet
facet normal -0.866025403784413 0.500000000000044 -3.1623178629517e-16
outer loop
vertex 63.142826920757 -6.4167314429156 16.3476954302959
vertex 63.5552158648562 -5.42113646109882 4.82769543029595
vertex 63.142826920757 -6.41673144291561 4.82769543029595
endloop
endfacet
facet normal -0.965925826289074 0.258819045102499 -1.2570879195731e-17
outer loop
vertex 63.5552158648562 -5.42113646109882 4.82769543029595
vertex 63.142826920757 -6.4167314429156 16.3476954302959
vertex 63.5552158648562 -5.42113646109883 16.3476954302959
endloop
endfacet
facet normal -0.258819045102526 0.965925826289067 -2.70443868049603e-16
outer loop
vertex 60.6362790721181 -8.34007325383689 16.3476954302959
vertex 61.6318740539348 -7.92768430973777 4.82769543029595
vertex 60.6362790721181 -8.3400732538369 4.82769543029595
endloop
endfacet
facet normal -0.500000000000009 0.866025403784433 -2.52110717189314e-16
outer loop
vertex 61.6318740539348 -7.92768430973777 4.82769543029595
vertex 60.6362790721181 -8.34007325383689 16.3476954302959
vertex 61.6318740539348 -7.92768430973777 16.3476954302959
endloop
endfacet
facet normal 0.25881904510251 0.965925826289071 -1.83155723638253e-16
outer loop
vertex 58.4994690357517 -8.34007325383689 16.3476954302959
vertex 59.5678740539348 -8.48073144291561 4.82769543029595
vertex 58.4994690357517 -8.34007325383689 4.82769543029595
endloop
endfacet
facet normal 4.95457710197967e-15 1.0 -3.97944874369426e-16
outer loop
vertex 59.5678740539348 -8.48073144291561 4.82769543029595
vertex 58.4994690357517 -8.34007325383689 16.3476954302959
vertex 59.5678740539348 -8.4807314429156 16.3476954302959
endloop
endfacet
facet normal -0.000622997484908319 -0.27174361209951 0.962369482661023
outer loop
vertex 59.5678740539349 -0.224731442915605 16.3476954302959
vertex 61.0777883245501 1.27082351481879 16.8276954302959
vertex 59.5248740539349 1.47526855708435 16.8276954302959
endloop
endfacet
facet normal -0.0358613885450854 -0.272394289529352 0.961517192692579
outer loop
vertex 61.0777883245501 1.27082351481879 16.8276954302959
vertex 59.5678740539349 -0.224731442915605 16.3476954302959
vertex 60.6362790721181 -0.365389631994335 16.3476954302959
endloop
endfacet
facet normal -1.0 -2.19747970026652e-14 1.82320702746621e-17
outer loop
vertex 63.6958740539348 -4.35273144291562 16.3476954302959
vertex 63.5552158648562 -5.42113646109882 4.82769543029595
vertex 63.5552158648562 -5.42113646109883 16.3476954302959
endloop
endfacet
facet normal -0.965925826289074 0.258819045102499 -1.2570879195731e-17
outer loop
vertex 63.5552158648562 -5.42113646109882 4.82769543029595
vertex 63.6958740539348 -4.35273144291562 16.3476954302959
vertex 63.6958740539348 -4.35273144291562 4.82769543029595
endloop
endfacet
facet normal -0.707106781186518 -0.707106781186577 2.66822937415964e-16
outer loop
vertex 62.4868108466729 -1.43379465017754 16.3476954302959
vertex 63.142826920757 -2.28873144291563 4.82769543029595
vertex 63.142826920757 -2.28873144291563 16.3476954302959
endloop
endfacet
facet normal -0.866025403784425 -0.500000000000024 1.7433352670476e-17
outer loop
vertex 63.142826920757 -2.28873144291563 4.82769543029595
vertex 62.4868108466729 -1.43379465017754 16.3476954302959
vertex 62.4868108466729 -1.43379465017755 4.82769543029595
endloop
endfacet
facet normal 0.00879602187456342 -0.999961314251298 4.53156676129877e-16
outer loop
vertex 57.5038740539349 -0.777778576093466 16.3476954302959
vertex 54.8841967250679 -0.800822206642584 4.82769543029594
vertex 57.5038740539349 -0.777778576093471 4.82769543029594
endloop
endfacet
facet normal 0.00879602187456342 -0.999961314251298 4.53156676129877e-16
outer loop
vertex 54.8841967250679 -0.800822206642584 4.82769543029594
vertex 57.5038740539349 -0.777778576093466 16.3476954302959
vertex 54.8841967250679 -0.800822206642579 16.8276954302959
endloop
endfacet
facet normal 0.0685162383570764 -0.260433486315798 0.96305759136554
outer loop
vertex 58.4994690357517 -0.365389631994349 16.3476954302959
vertex 59.5248740539349 1.47526855708435 16.8276954302959
vertex 57.9719597833198 1.2708235148188 16.8276954302959
endloop
endfacet
facet normal 0.000492016305807868 -0.271717511101231 0.962376928277537
outer loop
vertex 59.5248740539349 1.47526855708435 16.8276954302959
vertex 58.4994690357517 -0.365389631994349 16.3476954302959
vertex 59.5678740539349 -0.224731442915605 16.3476954302959
endloop
endfacet
facet normal 0.258819045102534 -0.965925826289065 4.47246260243241e-16
outer loop
vertex 58.4994690357517 -0.365389631994352 4.82769543029595
vertex 57.5038740539349 -0.777778576093466 16.3476954302959
vertex 57.5038740539349 -0.777778576093471 4.82769543029594
endloop
endfacet
facet normal 0.382683432365102 -0.923879532511282 3.25953774267485e-16
outer loop
vertex 57.5038740539349 -0.777778576093466 16.3476954302959
vertex 58.4994690357517 -0.365389631994352 4.82769543029595
vertex 58.4994690357517 -0.365389631994349 16.3476954302959
endloop
endfacet
facet normal 6.52293244361345e-15 -1.0 5.88418397156064e-16
outer loop
vertex 59.5678740539349 -0.224731442915605 16.3476954302959
vertex 58.4994690357517 -0.365389631994352 4.82769543029595
vertex 59.5678740539349 -0.224731442915615 4.82769543029594
endloop
endfacet
facet normal 0.258819045102534 -0.965925826289065 4.47246260243241e-16
outer loop
vertex 58.4994690357517 -0.365389631994352 4.82769543029595
vertex 59.5678740539349 -0.224731442915605 16.3476954302959
vertex 58.4994690357517 -0.365389631994349 16.3476954302959
endloop
endfacet
facet normal -0.707106781186519 -0.707106781186576 2.66822937415964e-16
outer loop
vertex 62.4868108466729 -1.43379465017755 4.82769543029595
vertex 61.6318740539348 -0.777778576093484 16.3476954302959
vertex 61.6318740539348 -0.777778576093489 4.82769543029594
endloop
endfacet
facet normal -0.500000000000011 -0.866025403784432 4.08798863347129e-16
outer loop
vertex 61.6318740539348 -0.777778576093484 16.3476954302959
vertex 62.4868108466729 -1.43379465017755 4.82769543029595
vertex 62.4868108466729 -1.43379465017754 16.3476954302959
endloop
endfacet
facet normal -0.258819045102552 -0.96592582628906 4.96643978388158e-16
outer loop
vertex 60.6362790721181 -0.365389631994339 4.82769543029594
vertex 59.5678740539349 -0.224731442915605 16.3476954302959
vertex 59.5678740539349 -0.224731442915615 4.82769543029594
endloop
endfacet
facet normal 6.52293244361345e-15 -1.0 5.88418397156064e-16
outer loop
vertex 59.5678740539349 -0.224731442915605 16.3476954302959
vertex 60.6362790721181 -0.365389631994339 4.82769543029594
vertex 60.6362790721181 -0.365389631994335 16.3476954302959
endloop
endfacet
facet normal -0.105095243472002 -0.253722362130968 0.961550806122195
outer loop
vertex 61.6318740539348 -0.777778576093484 16.3476954302959
vertex 61.0777883245501 1.27082351481879 16.8276954302959
vertex 60.6362790721181 -0.365389631994335 16.3476954302959
endloop
endfacet
facet normal -0.105095243472002 -0.253722362130968 0.961550806122195
outer loop
vertex 61.0777883245501 1.27082351481879 16.8276954302959
vertex 61.6318740539348 -0.777778576093484 16.3476954302959
vertex 62.5248740539349 0.671420979790968 16.8276954302959
endloop
endfacet
facet normal -0.166019452921675 -0.216360763432745 0.962094361951252
outer loop
vertex 62.4868108466729 -1.43379465017754 16.3476954302959
vertex 62.5248740539349 0.671420979790968 16.8276954302959
vertex 61.6318740539348 -0.777778576093484 16.3476954302959
endloop
endfacet
facet normal -0.166019452921675 -0.216360763432745 0.962094361951252
outer loop
vertex 62.5248740539349 0.671420979790968 16.8276954302959
vertex 62.4868108466729 -1.43379465017754 16.3476954302959
vertex 63.7675147410541 -0.28209075579636 16.827695430296
endloop
endfacet
facet normal -0.208879933008147 -0.132327135494665 0.968947213628425
outer loop
vertex 63.7675147410541 -0.28209075579636 16.827695430296
vertex 62.4868108466729 -1.43379465017754 16.3476954302959
vertex 63.142826920757 -2.28873144291563 16.3476954302959
endloop
endfacet
facet normal -0.208879933008147 -0.132327135494665 0.968947213628425
outer loop
vertex 63.7675147410541 -0.28209075579636 16.827695430296
vertex 63.142826920757 -2.28873144291563 16.3476954302959
vertex 63.5552158648562 -3.28432642473242 16.3476954302959
endloop
endfacet
facet normal -0.208879933008147 -0.132327135494665 0.968947213628425
outer loop
vertex 63.7675147410541 -0.28209075579636 16.827695430296
vertex 63.5552158648562 -3.28432642473242 16.3476954302959
vertex 63.6958740539348 -4.35273144291562 16.3476954302959
endloop
endfacet
facet normal -0.132702757902297 -0.113766736885323 0.984605051593577
outer loop
vertex 64.1296678095814 -0.704522762656077 16.8276954302959
vertex 63.7675147410541 -0.28209075579636 16.827695430296
vertex 63.6958740539348 -4.35273144291562 16.3476954302959
endloop
endfacet
facet normal 0.759195776835179 0.650862329863719 -2.91433543964104e-16
outer loop
vertex 64.1296678095814 -0.704522762656077 4.82769543029595
vertex 63.7675147410541 -0.28209075579636 16.827695430296
vertex 64.1296678095814 -0.704522762656077 16.8276954302959
endloop
endfacet
facet normal 0.759195776835179 0.650862329863719 -2.91433543964104e-16
outer loop
vertex 63.7675147410541 -0.28209075579636 16.827695430296
vertex 64.1296678095814 -0.704522762656077 4.82769543029595
vertex 63.7675147410541 -0.28209075579637 4.82769543029595
endloop
endfacet
facet normal 0.608761429008722 0.793353340291234 -3.12250225675825e-16
outer loop
vertex 62.5248740539349 0.671420979790968 16.8276954302959
vertex 63.7675147410541 -0.28209075579637 4.82769543029595
vertex 62.5248740539349 0.671420979790963 4.82769543029594
endloop
endfacet
facet normal 0.608761429008722 0.793353340291234 -3.12250225675825e-16
outer loop
vertex 63.7675147410541 -0.28209075579637 4.82769543029595
vertex 62.5248740539349 0.671420979790968 16.8276954302959
vertex 63.7675147410541 -0.28209075579636 16.827695430296
endloop
endfacet
facet normal 0.382683432365094 0.923879532511285 -5.62050406216485e-16
outer loop
vertex 61.0777883245501 1.27082351481879 4.82769543029595
vertex 62.5248740539349 0.671420979790968 16.8276954302959
vertex 62.5248740539349 0.671420979790963 4.82769543029594
endloop
endfacet
facet normal 0.382683432365094 0.923879532511285 -5.62050406216485e-16
outer loop
vertex 62.5248740539349 0.671420979790968 16.8276954302959
vertex 61.0777883245501 1.27082351481879 4.82769543029595
vertex 61.0777883245501 1.27082351481879 16.8276954302959
endloop
endfacet
facet normal 0.130526192220044 0.991444861373811 -1.66533453693773e-16
outer loop
vertex 59.5248740539349 1.47526855708435 16.8276954302959
vertex 61.0777883245501 1.27082351481879 4.82769543029595
vertex 59.5248740539349 1.47526855708434 4.82769543029594
endloop
endfacet
facet normal 0.130526192220044 0.991444861373811 -1.66533453693773e-16
outer loop
vertex 61.0777883245501 1.27082351481879 4.82769543029595
vertex 59.5248740539349 1.47526855708435 16.8276954302959
vertex 61.0777883245501 1.27082351481879 16.8276954302959
endloop
endfacet
facet normal -0.130526192220046 0.991444861373811 -3.05311331771918e-16
outer loop
vertex 57.9719597833198 1.27082351481881 4.82769543029595
vertex 59.5248740539349 1.47526855708435 16.8276954302959
vertex 59.5248740539349 1.47526855708434 4.82769543029594
endloop
endfacet
facet normal -0.130526192220046 0.991444861373811 -3.05311331771918e-16
outer loop
vertex 59.5248740539349 1.47526855708435 16.8276954302959
vertex 57.9719597833198 1.27082351481881 4.82769543029595
vertex 57.9719597833198 1.2708235148188 16.8276954302959
endloop
endfacet
facet normal -0.382683432365095 0.923879532511285 -3.95516952522712e-16
outer loop
vertex 56.524874053935 0.671420979791009 16.8276954302959
vertex 57.9719597833198 1.27082351481881 4.82769543029595
vertex 56.524874053935 0.671420979790995 4.82769543029594
endloop
endfacet
facet normal -0.382683432365095 0.923879532511285 -3.95516952522712e-16
outer loop
vertex 57.9719597833198 1.27082351481881 4.82769543029595
vertex 56.524874053935 0.671420979791009 16.8276954302959
vertex 57.9719597833198 1.2708235148188 16.8276954302959
endloop
endfacet
facet normal -0.608761429008721 0.793353340291235 -3.88578058618805e-16
outer loop
vertex 55.2822333668157 -0.282090755796341 4.82769543029594
vertex 56.524874053935 0.671420979791009 16.8276954302959
vertex 56.524874053935 0.671420979790995 4.82769543029594
endloop
endfacet
facet normal -0.608761429008721 0.793353340291235 -3.88578058618805e-16
outer loop
vertex 56.524874053935 0.671420979791009 16.8276954302959
vertex 55.2822333668157 -0.282090755796341 4.82769543029594
vertex 55.2822333668157 -0.282090755796343 16.8276954302959
endloop
endfacet
facet normal 0.258819045102519 -0.965925826289069 3.28942159256073e-16
outer loop
vertex 71.9496054968505 0.981045766932033 4.82769543029594
vertex 70.574874053935 0.411613358655679 16.8276954302959
vertex 70.574874053935 0.411613358655674 4.82769543029594
endloop
endfacet
facet normal 0.499999999999999 -0.866025403784439 2.72952004489082e-16
outer loop
vertex 70.574874053935 0.411613358655679 16.8276954302959
vertex 71.9496054968505 0.981045766932033 4.82769543029594
vertex 71.9496054968505 0.981045766932033 16.8276954302959
endloop
endfacet
facet normal 1.69311088017291e-16 -1.0 4.05928622060687e-16
outer loop
vertex 73.4248740539349 1.17526855708439 4.82769543029594
vertex 71.9496054968505 0.981045766932033 16.8276954302959
vertex 71.9496054968505 0.981045766932033 4.82769543029594
endloop
endfacet
facet normal 0.258819045102518 -0.965925826289069 3.28942159256074e-16
outer loop
vertex 71.9496054968505 0.981045766932033 16.8276954302959
vertex 73.4248740539349 1.17526855708439 4.82769543029594
vertex 73.4248740539349 1.17526855708438 16.8276954302959
endloop
endfacet
facet normal -0.258819045102517 -0.965925826289069 3.84932314023065e-16
outer loop
vertex 74.9001426110193 0.981045766932072 16.8276954302959
vertex 73.4248740539349 1.17526855708439 4.82769543029594
vertex 74.9001426110193 0.981045766932072 4.82769543029594
endloop
endfacet
facet normal 1.69311088017291e-16 -1.0 4.05928622060687e-16
outer loop
vertex 73.4248740539349 1.17526855708439 4.82769543029594
vertex 74.9001426110193 0.981045766932072 16.8276954302959
vertex 73.4248740539349 1.17526855708438 16.8276954302959
endloop
endfacet
facet normal -0.499999999999999 -0.866025403784439 2.79950773834956e-16
outer loop
vertex 76.274874053935 0.411613358655679 16.8276954302959
vertex 74.9001426110193 0.981045766932072 4.82769543029594
vertex 76.274874053935 0.411613358655674 4.82769543029594
endloop
endfacet
facet normal -0.258819045102518 -0.965925826289069 3.84932314023065e-16
outer loop
vertex 74.9001426110193 0.981045766932072 4.82769543029594
vertex 76.274874053935 0.411613358655679 16.8276954302959
vertex 74.9001426110193 0.981045766932072 16.8276954302959
endloop
endfacet
facet normal -0.608761429008723 -0.793353340291233 2.08166817117217e-16
outer loop
vertex 77.4553827066982 -0.494222790152324 4.82769543029594
vertex 76.274874053935 0.411613358655679 16.8276954302959
vertex 76.274874053935 0.411613358655674 4.82769543029594
endloop
endfacet
facet normal -0.499999999999999 -0.866025403784439 2.79950773834956e-16
outer loop
vertex 76.274874053935 0.411613358655679 16.8276954302959
vertex 77.4553827066982 -0.494222790152324 4.82769543029594
vertex 77.4553827066982 -0.494222790152314 16.8276954302959
endloop
endfacet
facet normal 2.74086309204335e-16 -1.0 3.33066907387547e-16
outer loop
vertex 80.0797293920235 -0.494222790152311 4.82769543029595
vertex 77.4553827066982 -0.494222790152314 16.8276954302959
vertex 77.4553827066982 -0.494222790152324 4.82769543029594
endloop
endfacet
facet normal 2.74086309204335e-16 -1.0 3.33066907387547e-16
outer loop
vertex 77.4553827066982 -0.494222790152314 16.8276954302959
vertex 80.0797293920235 -0.494222790152311 4.82769543029595
vertex 80.0797293920235 -0.494222790152302 16.8276954302959
endloop
endfacet
facet normal 0.707106781186548 0.707106781186547 -3.91931083368939e-16
outer loop
vertex 78.94030694719 0.99070145033943 4.82769543029594
vertex 80.0797293920235 -0.494222790152302 16.8276954302959
vertex 80.0797293920235 -0.494222790152311 4.82769543029595
endloop
endfacet
facet normal 0.793353340291236 0.60876142900872 -2.91433543964104e-16
outer loop
vertex 80.0797293920235 -0.494222790152302 16.8276954302959
vertex 78.94030694719 0.99070145033943 4.82769543029594
vertex 78.94030694719 0.990701450339433 16.8276954302959
endloop
endfacet
facet normal 0.5 0.866025403784439 -4.19926160752434e-16
outer loop
vertex 77.3248740539349 2.23026670660299 16.827695430296
vertex 78.94030694719 0.99070145033943 4.82769543029594
vertex 77.3248740539349 2.23026670660297 4.82769543029594
endloop
endfacet
facet normal 0.707106781186548 0.707106781186547 -3.91931083368939e-16
outer loop
vertex 78.94030694719 0.99070145033943 4.82769543029594
vertex 77.3248740539349 2.23026670660299 16.827695430296
vertex 78.94030694719 0.990701450339433 16.8276954302959
endloop
endfacet
facet normal 0.25881904510252 0.965925826289069 -3.84932314023065e-16
outer loop
vertex 75.4436626057347 3.00949000213909 4.82769543029594
vertex 77.3248740539349 2.23026670660299 16.827695430296
vertex 77.3248740539349 2.23026670660297 4.82769543029594
endloop
endfacet
facet normal 0.5 0.866025403784439 -4.19926160752434e-16
outer loop
vertex 77.3248740539349 2.23026670660299 16.827695430296
vertex 75.4436626057347 3.00949000213909 4.82769543029594
vertex 75.4436626057347 3.00949000213909 16.8276954302959
endloop
endfacet
facet normal 0.13052619222005 0.991444861373811 -4.16333634234434e-16
outer loop
vertex 73.4248740539349 3.27526855708437 16.8276954302959
vertex 75.4436626057347 3.00949000213909 4.82769543029594
vertex 73.4248740539349 3.27526855708437 4.82769543029594
endloop
endfacet
facet normal 0.25881904510252 0.965925826289069 -3.84932314023065e-16
outer loop
vertex 75.4436626057347 3.00949000213909 4.82769543029594
vertex 73.4248740539349 3.27526855708437 16.8276954302959
vertex 75.4436626057347 3.00949000213909 16.8276954302959
endloop
endfacet
facet normal -0.258819045102521 0.965925826289068 -3.81432929350128e-16
outer loop
vertex 71.4060855021353 3.00949000213915 16.8276954302959
vertex 73.4248740539349 3.27526855708437 4.82769543029594
vertex 71.4060855021353 3.00949000213914 4.82769543029594
endloop
endfacet
facet normal -0.13052619222005 0.991444861373811 -2.91433543964104e-16
outer loop
vertex 73.4248740539349 3.27526855708437 4.82769543029594
vertex 71.4060855021353 3.00949000213915 16.8276954302959
vertex 73.4248740539349 3.27526855708437 16.8276954302959
endloop
endfacet
facet normal -0.500000000000001 0.866025403784438 -4.51420622808867e-16
outer loop
vertex 69.524874053935 2.23026670660303 16.827695430296
vertex 71.4060855021353 3.00949000213914 4.82769543029594
vertex 69.524874053935 2.23026670660302 4.82769543029594
endloop
endfacet
facet normal -0.25881904510252 0.965925826289069 -3.81432929350128e-16
outer loop
vertex 71.4060855021353 3.00949000213914 4.82769543029594
vertex 69.524874053935 2.23026670660303 16.827695430296
vertex 71.4060855021353 3.00949000213915 16.8276954302959
endloop
endfacet
facet normal -0.707106781186548 0.707106781186547 -3.46439082620758e-16
outer loop
vertex 67.9094411606799 0.990701450339452 4.82769543029594
vertex 69.524874053935 2.23026670660303 16.827695430296
vertex 69.524874053935 2.23026670660302 4.82769543029594
endloop
endfacet
facet normal -0.500000000000001 0.866025403784438 -4.51420622808867e-16
outer loop
vertex 69.524874053935 2.23026670660303 16.827695430296
vertex 67.9094411606799 0.990701450339452 4.82769543029594
vertex 67.9094411606799 0.990701450339456 16.8276954302959
endloop
endfacet
facet normal -0.793353340291236 0.60876142900872 -2.56739074444567e-16
outer loop
vertex 66.6698759044162 -0.624731442915631 16.8276954302959
vertex 67.9094411606799 0.990701450339452 4.82769543029594
vertex 66.6698759044162 -0.624731442915631 4.82769543029594
endloop
endfacet
facet normal -0.707106781186548 0.707106781186547 -3.46439082620758e-16
outer loop
vertex 67.9094411606799 0.990701450339452 4.82769543029594
vertex 66.6698759044162 -0.624731442915631 16.8276954302959
vertex 67.9094411606799 0.990701450339456 16.8276954302959
endloop
endfacet
facet normal -0.645371260180957 0.763869057190068 -3.53883589099269e-16
outer loop
vertex 66.4567693131217 -0.804779146225604 4.82769543029594
vertex 66.6698759044162 -0.624731442915631 16.8276954302959
vertex 66.6698759044162 -0.624731442915631 4.82769543029594
endloop
endfacet
facet normal -0.645371260180957 0.763869057190068 -3.53883589099269e-16
outer loop
vertex 66.6698759044162 -0.624731442915631 16.8276954302959
vertex 66.4567693131217 -0.804779146225604 4.82769543029594
vertex 66.4567693131217 -0.804779146225594 16.8276954302959
endloop
endfacet
facet normal -0.524898853443963 0.851164610197824 -2.4980018054066e-16
outer loop
vertex 66.2193087339787 -0.951217078720666 4.82769543029595
vertex 66.4567693131217 -0.804779146225594 16.8276954302959
vertex 66.4567693131217 -0.804779146225604 4.82769543029594
endloop
endfacet
facet normal -0.524898853443963 0.851164610197824 -2.4980018054066e-16
outer loop
vertex 66.4567693131217 -0.804779146225594 16.8276954302959
vertex 66.2193087339787 -0.951217078720666 4.82769543029595
vertex 66.2193087339787 -0.951217078720668 16.8276954302959
endloop
endfacet
facet normal -0.392808275457453 0.919620388384328 -1.94289029309402e-16
outer loop
vertex 65.9627501466019 -1.06080396645633 16.8276954302959
vertex 66.2193087339787 -0.951217078720666 4.82769543029595
vertex 65.9627501466019 -1.06080396645633 4.82769543029594
endloop
endfacet
facet normal -0.392808275457453 0.919620388384328 -1.94289029309402e-16
outer loop
vertex 66.2193087339787 -0.951217078720666 4.82769543029595
vertex 65.9627501466019 -1.06080396645633 16.8276954302959
vertex 66.2193087339787 -0.951217078720668 16.8276954302959
endloop
endfacet
facet normal -0.252023234180397 0.967721183726621 -3.19189119579733e-16
outer loop
vertex 65.6927722481043 -1.13111420072706 4.82769543029594
vertex 65.9627501466019 -1.06080396645633 16.8276954302959
vertex 65.9627501466019 -1.06080396645633 4.82769543029594
endloop
endfacet
facet normal -0.252023234180397 0.967721183726621 -3.19189119579733e-16
outer loop
vertex 65.9627501466019 -1.06080396645633 16.8276954302959
vertex 65.6927722481043 -1.13111420072706 4.82769543029594
vertex 65.6927722481043 -1.13111420072705 16.8276954302959
endloop
endfacet
facet normal -0.105659881816669 0.994402327719765 -3.88578058618805e-16
outer loop
vertex 65.415350760166 -1.16059152676689 4.82769543029595
vertex 65.6927722481043 -1.13111420072705 16.8276954302959
vertex 65.6927722481043 -1.13111420072706 4.82769543029594
endloop
endfacet
facet normal -0.105659881816669 0.994402327719765 -3.88578058618805e-16
outer loop
vertex 65.6927722481043 -1.13111420072705 16.8276954302959
vertex 65.415350760166 -1.16059152676689 4.82769543029595
vertex 65.415350760166 -1.16059152676688 16.827695430296
endloop
endfacet
facet normal 0.04304215845443 0.999073256871379 -3.05311331771918e-16
outer loop
vertex 65.1366261617268 -1.14858349007023 16.8276954302959
vertex 65.415350760166 -1.16059152676689 4.82769543029595
vertex 65.1366261617268 -1.14858349007024 4.82769543029595
endloop
endfacet
facet normal 0.04304215845443 0.999073256871379 -3.05311331771918e-16
outer loop
vertex 65.415350760166 -1.16059152676689 4.82769543029595
vertex 65.1366261617268 -1.14858349007023 16.8276954302959
vertex 65.415350760166 -1.16059152676688 16.827695430296
endloop
endfacet
facet normal 0.190791498668043 0.981630584301448 -3.46944695195361e-16
outer loop
vertex 64.8627677749236 -1.09535587789456 16.8276954302959
vertex 65.1366261617268 -1.14858349007024 4.82769543029595
vertex 64.8627677749236 -1.09535587789456 4.82769543029594
endloop
endfacet
facet normal 0.190791498668043 0.981630584301448 -3.46944695195361e-16
outer loop
vertex 65.1366261617268 -1.14858349007024 4.82769543029595
vertex 64.8627677749236 -1.09535587789456 16.8276954302959
vertex 65.1366261617268 -1.14858349007023 16.8276954302959
endloop
endfacet
facet normal 0.334317838031209 0.942460388119383 -4.23272528138341e-16
outer loop
vertex 64.5998372126082 -1.00208683629485 16.8276954302959
vertex 64.8627677749236 -1.09535587789456 4.82769543029594
vertex 64.5998372126082 -1.00208683629486 4.82769543029594
endloop
endfacet
facet normal 0.334317838031209 0.942460388119383 -4.23272528138341e-16
outer loop
vertex 64.8627677749236 -1.09535587789456 4.82769543029594
vertex 64.5998372126082 -1.00208683629485 16.8276954302959
vertex 64.8627677749236 -1.09535587789456 16.8276954302959
endloop
endfacet
facet normal 0.470444348134868 0.882429665926956 -4.85722573273506e-16
outer loop
vertex 64.3536542099159 -0.870840792904119 4.82769543029594
vertex 64.5998372126082 -1.00208683629485 16.8276954302959
vertex 64.5998372126082 -1.00208683629486 4.82769543029594
endloop
endfacet
facet normal 0.470444348134868 0.882429665926956 -4.85722573273506e-16
outer loop
vertex 64.5998372126082 -1.00208683629485 16.8276954302959
vertex 64.3536542099159 -0.870840792904119 4.82769543029594
vertex 64.3536542099159 -0.870840792904107 16.827695430296
endloop
endfacet
facet normal 0.596157989236849 0.802867144594345 -2.35922392732846e-16
outer loop
vertex 64.1296678095814 -0.704522762656077 4.82769543029595
vertex 64.3536542099159 -0.870840792904107 16.827695430296
vertex 64.3536542099159 -0.870840792904119 4.82769543029594
endloop
endfacet
facet normal 0.596157989236849 0.802867144594345 -2.35922392732846e-16
outer loop
vertex 64.3536542099159 -0.870840792904107 16.827695430296
vertex 64.1296678095814 -0.704522762656077 4.82769543029595
vertex 64.1296678095814 -0.704522762656077 16.8276954302959
endloop
endfacet
facet normal -0.793353340291233 -0.608761429008723 3.53883589099269e-16
outer loop
vertex 55.2822333668157 -8.76737213003488 16.827695430296
vertex 54.8841967250679 -8.24864067918872 4.82769543029595
vertex 55.2822333668157 -8.76737213003488 4.82769543029595
endloop
endfacet
facet normal -0.793353340291233 -0.608761429008723 3.53883589099269e-16
outer loop
vertex 54.8841967250679 -8.24864067918872 4.82769543029595
vertex 55.2822333668157 -8.76737213003488 16.827695430296
vertex 54.8841967250679 -8.24864067918872 16.8276954302959
endloop
endfacet
facet normal -0.608761429008725 -0.793353340291232 6.93889390390723e-17
outer loop
vertex 56.5248740539349 -9.72088386562227 4.82769543029595
vertex 55.2822333668157 -8.76737213003488 16.827695430296
vertex 55.2822333668157 -8.76737213003488 4.82769543029595
endloop
endfacet
facet normal -0.608761429008725 -0.793353340291232 6.93889390390723e-17
outer loop
vertex 55.2822333668157 -8.76737213003488 16.827695430296
vertex 56.5248740539349 -9.72088386562227 4.82769543029595
vertex 56.5248740539349 -9.72088386562228 16.8276954302959
endloop
endfacet
facet normal -0.382683432365088 -0.923879532511288 2.42861286636753e-16
outer loop
vertex 57.9719597833198 -10.32028640065 4.82769543029595
vertex 56.5248740539349 -9.72088386562228 16.8276954302959
vertex 56.5248740539349 -9.72088386562227 4.82769543029595
endloop
endfacet
facet normal -0.382683432365088 -0.923879532511288 2.42861286636753e-16
outer loop
vertex 56.5248740539349 -9.72088386562228 16.8276954302959
vertex 57.9719597833198 -10.32028640065 4.82769543029595
vertex 57.9719597833198 -10.32028640065 16.8276954302959
endloop
endfacet
facet normal -0.130526192220051 -0.991444861373811 3.88578058618805e-16
outer loop
vertex 59.5248740539349 -10.5247314429156 16.8276954302959
vertex 57.9719597833198 -10.32028640065 4.82769543029595
vertex 59.5248740539349 -10.5247314429156 4.82769543029595
endloop
endfacet
facet normal -0.130526192220051 -0.991444861373811 3.88578058618805e-16
outer loop
vertex 57.9719597833198 -10.32028640065 4.82769543029595
vertex 59.5248740539349 -10.5247314429156 16.8276954302959
vertex 57.9719597833198 -10.32028640065 16.8276954302959
endloop
endfacet
facet normal 0.130526192220052 -0.99144486137381 3.88578058618805e-16
outer loop
vertex 61.07778832455 -10.32028640065 16.8276954302959
vertex 59.5248740539349 -10.5247314429156 4.82769543029595
vertex 61.07778832455 -10.32028640065 4.82769543029595
endloop
endfacet
facet normal 0.130526192220052 -0.99144486137381 3.88578058618805e-16
outer loop
vertex 59.5248740539349 -10.5247314429156 4.82769543029595
vertex 61.07778832455 -10.32028640065 16.8276954302959
vertex 59.5248740539349 -10.5247314429156 16.8276954302959
endloop
endfacet
facet normal 0.382683432365088 -0.923879532511288 3.40005801291454e-16
outer loop
vertex 62.5248740539349 -9.72088386562226 4.82769543029595
vertex 61.07778832455 -10.32028640065 16.8276954302959
vertex 61.07778832455 -10.32028640065 4.82769543029595
endloop
endfacet
facet normal 0.382683432365088 -0.923879532511288 3.40005801291454e-16
outer loop
vertex 61.07778832455 -10.32028640065 16.8276954302959
vertex 62.5248740539349 -9.72088386562226 4.82769543029595
vertex 62.5248740539349 -9.72088386562226 16.827695430296
endloop
endfacet
facet normal 0.608761429008723 -0.793353340291234 3.19189119579733e-16
outer loop
vertex 63.7675147410542 -8.76737213003491 16.8276954302959
vertex 62.5248740539349 -9.72088386562226 4.82769543029595
vertex 63.7675147410542 -8.76737213003491 4.82769543029595
endloop
endfacet
facet normal 0.608761429008723 -0.793353340291234 3.19189119579733e-16
outer loop
vertex 62.5248740539349 -9.72088386562226 4.82769543029595
vertex 63.7675147410542 -8.76737213003491 16.8276954302959
vertex 62.5248740539349 -9.72088386562226 16.827695430296
endloop
endfacet
facet normal 0.759195776835182 -0.650862329863716 2.70616862252382e-16
outer loop
vertex 63.7675147410542 -8.76737213003491 4.82769543029595
vertex 64.1296678095814 -8.34494012317518 16.827695430296
vertex 63.7675147410542 -8.76737213003491 16.8276954302959
endloop
endfacet
facet normal 0.759195776835182 -0.650862329863716 2.70616862252382e-16
outer loop
vertex 64.1296678095814 -8.34494012317518 16.827695430296
vertex 63.7675147410542 -8.76737213003491 4.82769543029595
vertex 64.1296678095814 -8.34494012317519 4.82769543029595
endloop
endfacet
facet normal 0.596157989236876 -0.802867144594325 1.04083408558608e-16
outer loop
vertex 64.3536542099158 -8.17862209292714 4.82769543029595
vertex 64.1296678095814 -8.34494012317518 16.827695430296
vertex 64.1296678095814 -8.34494012317519 4.82769543029595
endloop
endfacet
facet normal 0.596157989236876 -0.802867144594325 1.04083408558608e-16
outer loop
vertex 64.1296678095814 -8.34494012317518 16.827695430296
vertex 64.3536542099158 -8.17862209292714 4.82769543029595
vertex 64.3536542099158 -8.17862209292714 16.827695430296
endloop
endfacet
facet normal 0.470444348134833 -0.882429665926975 6.03683769639929e-16
outer loop
vertex 64.5998372126083 -8.0473760495364 16.8276954302959
vertex 64.3536542099158 -8.17862209292714 4.82769543029595
vertex 64.5998372126083 -8.04737604953641 4.82769543029595
endloop
endfacet
facet normal 0.470444348134833 -0.882429665926975 6.03683769639929e-16
outer loop
vertex 64.3536542099158 -8.17862209292714 4.82769543029595
vertex 64.5998372126083 -8.0473760495364 16.8276954302959
vertex 64.3536542099158 -8.17862209292714 16.827695430296
endloop
endfacet
facet normal 0.334317838031207 -0.942460388119384 5.34294830600857e-16
outer loop
vertex 64.8627677749236 -7.95410700793672 4.82769543029595
vertex 64.5998372126083 -8.0473760495364 16.8276954302959
vertex 64.5998372126083 -8.04737604953641 4.82769543029595
endloop
endfacet
facet normal 0.334317838031207 -0.942460388119384 5.34294830600857e-16
outer loop
vertex 64.5998372126083 -8.0473760495364 16.8276954302959
vertex 64.8627677749236 -7.95410700793672 4.82769543029595
vertex 64.8627677749236 -7.95410700793671 16.827695430296
endloop
endfacet
facet normal 0.190791498668044 -0.981630584301448 1.2490009027033e-16
outer loop
vertex 65.1366261617268 -7.90087939576103 4.82769543029595
vertex 64.8627677749236 -7.95410700793671 16.827695430296
vertex 64.8627677749236 -7.95410700793672 4.82769543029595
endloop
endfacet
facet normal 0.190791498668044 -0.981630584301448 1.2490009027033e-16
outer loop
vertex 64.8627677749236 -7.95410700793671 16.827695430296
vertex 65.1366261617268 -7.90087939576103 4.82769543029595
vertex 65.1366261617268 -7.90087939576103 16.8276954302959
endloop
endfacet
facet normal 0.0430421584544709 -0.999073256871377 4.02455846426619e-16
outer loop
vertex 65.4153507601659 -7.88887135906435 16.8276954302959
vertex 65.1366261617268 -7.90087939576103 4.82769543029595
vertex 65.4153507601659 -7.88887135906435 4.82769543029595
endloop
endfacet
facet normal 0.0430421584544709 -0.999073256871377 4.02455846426619e-16
outer loop
vertex 65.1366261617268 -7.90087939576103 4.82769543029595
vertex 65.4153507601659 -7.88887135906435 16.8276954302959
vertex 65.1366261617268 -7.90087939576103 16.8276954302959
endloop
endfacet
facet normal -0.105659881816667 -0.994402327719766 4.02455846426619e-16
outer loop
vertex 65.6927722481043 -7.91834868510417 16.8276954302959
vertex 65.4153507601659 -7.88887135906435 4.82769543029595
vertex 65.6927722481043 -7.91834868510418 4.82769543029594
endloop
endfacet
facet normal -0.105659881816667 -0.994402327719766 4.02455846426619e-16
outer loop
vertex 65.4153507601659 -7.88887135906435 4.82769543029595
vertex 65.6927722481043 -7.91834868510417 16.8276954302959
vertex 65.4153507601659 -7.88887135906435 16.8276954302959
endloop
endfacet
facet normal -0.252023234180434 -0.967721183726611 5.41233724504764e-16
outer loop
vertex 65.9627501466019 -7.98865891937495 4.82769543029595
vertex 65.6927722481043 -7.91834868510417 16.8276954302959
vertex 65.6927722481043 -7.91834868510418 4.82769543029594
endloop
endfacet
facet normal -0.252023234180434 -0.967721183726611 5.41233724504764e-16
outer loop
vertex 65.6927722481043 -7.91834868510417 16.8276954302959
vertex 65.9627501466019 -7.98865891937495 4.82769543029595
vertex 65.9627501466019 -7.98865891937493 16.827695430296
endloop
endfacet
facet normal -0.392808275457418 -0.919620388384343 3.67761376907083e-16
outer loop
vertex 66.2193087339787 -8.09824580711059 4.82769543029595
vertex 65.9627501466019 -7.98865891937493 16.827695430296
vertex 65.9627501466019 -7.98865891937495 4.82769543029595
endloop
endfacet
facet normal -0.392808275457418 -0.919620388384343 3.67761376907083e-16
outer loop
vertex 65.9627501466019 -7.98865891937493 16.827695430296
vertex 66.2193087339787 -8.09824580711059 4.82769543029595
vertex 66.2193087339787 -8.09824580711059 16.8276954302959
endloop
endfacet
facet normal -0.524898853443988 -0.851164610197809 2.08166817117217e-16
outer loop
vertex 66.4567693131218 -8.24468373960564 16.8276954302959
vertex 66.2193087339787 -8.09824580711059 4.82769543029595
vertex 66.4567693131218 -8.24468373960564 4.82769543029595
endloop
endfacet
facet normal -0.524898853443988 -0.851164610197809 2.08166817117217e-16
outer loop
vertex 66.2193087339787 -8.09824580711059 4.82769543029595
vertex 66.4567693131218 -8.24468373960564 16.8276954302959
vertex 66.2193087339787 -8.09824580711059 16.8276954302959
endloop
endfacet
facet normal -0.64537126018096 -0.763869057190065 3.88578058618805e-16
outer loop
vertex 66.6698759044163 -8.42473144291563 16.8276954302959
vertex 66.4567693131218 -8.24468373960564 4.82769543029595
vertex 66.6698759044163 -8.42473144291564 4.82769543029595
endloop
endfacet
facet normal -0.64537126018096 -0.763869057190065 3.88578058618805e-16
outer loop
vertex 66.4567693131218 -8.24468373960564 4.82769543029595
vertex 66.6698759044163 -8.42473144291563 16.8276954302959
vertex 66.4567693131218 -8.24468373960564 16.8276954302959
endloop
endfacet
facet normal -0.707106781186548 -0.707106781186547 2.7645138916202e-16
outer loop
vertex 67.9094411606799 -10.0401643361707 16.8276954302959
vertex 66.6698759044163 -8.42473144291564 4.82769543029595
vertex 67.9094411606799 -10.0401643361707 4.82769543029595
endloop
endfacet
facet normal -0.793353340291237 -0.608761429008719 7.63278329429795e-17
outer loop
vertex 66.6698759044163 -8.42473144291564 4.82769543029595
vertex 67.9094411606799 -10.0401643361707 16.8276954302959
vertex 66.6698759044163 -8.42473144291563 16.8276954302959
endloop
endfacet
facet normal -0.5 -0.866025403784439 2.8694954318083e-16
outer loop
vertex 69.5248740539349 -11.2797295924342 16.827695430296
vertex 67.9094411606799 -10.0401643361707 4.82769543029595
vertex 69.5248740539349 -11.2797295924343 4.82769543029595
endloop
endfacet
facet normal -0.707106781186549 -0.707106781186547 2.76451389162019e-16
outer loop
vertex 67.9094411606799 -10.0401643361707 4.82769543029595
vertex 69.5248740539349 -11.2797295924342 16.827695430296
vertex 67.9094411606799 -10.0401643361707 16.8276954302959
endloop
endfacet
facet normal -0.258819045102519 -0.965925826289069 2.58954465797334e-16
outer loop
vertex 71.4060855021353 -12.0589528879704 4.82769543029595
vertex 69.5248740539349 -11.2797295924342 16.827695430296
vertex 69.5248740539349 -11.2797295924343 4.82769543029595
endloop
endfacet
facet normal -0.5 -0.866025403784439 2.8694954318083e-16
outer loop
vertex 69.5248740539349 -11.2797295924342 16.827695430296
vertex 71.4060855021353 -12.0589528879704 4.82769543029595
vertex 71.4060855021353 -12.0589528879704 16.8276954302959
endloop
endfacet
facet normal -0.13052619222005 -0.991444861373811 4.16333634234434e-16
outer loop
vertex 73.424874053935 -12.3247314429156 4.82769543029595
vertex 71.4060855021353 -12.0589528879704 16.8276954302959
vertex 71.4060855021353 -12.0589528879704 4.82769543029595
endloop
endfacet
facet normal -0.258819045102519 -0.965925826289069 2.58954465797335e-16
outer loop
vertex 71.4060855021353 -12.0589528879704 16.8276954302959
vertex 73.424874053935 -12.3247314429156 4.82769543029595
vertex 73.424874053935 -12.3247314429156 16.827695430296
endloop
endfacet
facet normal 0.25881904510252 -0.965925826289069 3.77933544677191e-16
outer loop
vertex 75.4436626057347 -12.0589528879704 16.8276954302959
vertex 73.424874053935 -12.3247314429156 4.82769543029595
vertex 75.4436626057347 -12.0589528879704 4.82769543029595
endloop
endfacet
facet normal 0.13052619222005 -0.991444861373811 4.02455846426619e-16
outer loop
vertex 73.424874053935 -12.3247314429156 4.82769543029595
vertex 75.4436626057347 -12.0589528879704 16.8276954302959
vertex 73.424874053935 -12.3247314429156 16.827695430296
endloop
endfacet
facet normal 0.500000000000001 -0.866025403784438 3.25442774583137e-16
outer loop
vertex 77.3248740539349 -11.2797295924342 16.827695430296
vertex 75.4436626057347 -12.0589528879704 4.82769543029595
vertex 77.3248740539349 -11.2797295924342 4.82769543029595
endloop
endfacet
facet normal 0.25881904510252 -0.965925826289069 3.77933544677191e-16
outer loop
vertex 75.4436626057347 -12.0589528879704 4.82769543029595
vertex 77.3248740539349 -11.2797295924342 16.827695430296
vertex 75.4436626057347 -12.0589528879704 16.8276954302959
endloop
endfacet
facet normal 0.707106781186548 -0.707106781186547 3.219433899102e-16
outer loop
vertex 78.94030694719 -10.0401643361707 4.82769543029595
vertex 77.3248740539349 -11.2797295924342 16.827695430296
vertex 77.3248740539349 -11.2797295924342 4.82769543029595
endloop
endfacet
facet normal 0.500000000000001 -0.866025403784438 3.25442774583137e-16
outer loop
vertex 77.3248740539349 -11.2797295924342 16.827695430296
vertex 78.94030694719 -10.0401643361707 4.82769543029595
vertex 78.94030694719 -10.0401643361707 16.8276954302959
endloop
endfacet
facet normal 0.793353340291236 -0.60876142900872 3.40005801291454e-16
outer loop
vertex 80.0797293920235 -8.55524009567894 4.82769543029595
vertex 78.94030694719 -10.0401643361707 16.8276954302959
vertex 78.94030694719 -10.0401643361707 4.82769543029595
endloop
endfacet
facet normal 0.707106781186549 -0.707106781186547 3.219433899102e-16
outer loop
vertex 78.94030694719 -10.0401643361707 16.8276954302959
vertex 80.0797293920235 -8.55524009567894 4.82769543029595
vertex 80.0797293920235 -8.55524009567893 16.827695430296
endloop
endfacet
facet normal -2.18575157973078e-16 1.0 -3.33066907387547e-16
outer loop
vertex 77.4553827066983 -8.55524009567894 16.827695430296
vertex 80.0797293920235 -8.55524009567894 4.82769543029595
vertex 77.4553827066983 -8.55524009567894 4.82769543029595
endloop
endfacet
facet normal -2.18575157973078e-16 1.0 -3.33066907387547e-16
outer loop
vertex 80.0797293920235 -8.55524009567894 4.82769543029595
vertex 77.4553827066983 -8.55524009567894 16.827695430296
vertex 80.0797293920235 -8.55524009567893 16.827695430296
endloop
endfacet
facet normal -0.5 0.866025403784439 -3.98929852714812e-16
outer loop
vertex 76.2748740539349 -9.4610762444869 16.8276954302959
vertex 77.4553827066983 -8.55524009567894 4.82769543029595
vertex 76.2748740539349 -9.4610762444869 4.82769543029595
endloop
endfacet
facet normal -0.60876142900872 0.793353340291236 -3.53883589099269e-16
outer loop
vertex 77.4553827066983 -8.55524009567894 4.82769543029595
vertex 76.2748740539349 -9.4610762444869 16.8276954302959
vertex 77.4553827066983 -8.55524009567894 16.827695430296
endloop
endfacet
facet normal -0.258819045102522 0.965925826289068 -4.16426776079497e-16
outer loop
vertex 74.9001426110193 -10.0305086527633 4.82769543029595
vertex 76.2748740539349 -9.4610762444869 16.8276954302959
vertex 76.2748740539349 -9.4610762444869 4.82769543029595
endloop
endfacet
facet normal -0.5 0.866025403784439 -3.98929852714812e-16
outer loop
vertex 76.2748740539349 -9.4610762444869 16.8276954302959
vertex 74.9001426110193 -10.0305086527633 4.82769543029595
vertex 74.9001426110193 -10.0305086527633 16.827695430296
endloop
endfacet
facet normal -3.29711066138937e-16 1.0 -3.91931083368939e-16
outer loop
vertex 73.424874053935 -10.2247314429156 16.827695430296
vertex 74.9001426110193 -10.0305086527633 4.82769543029595
vertex 73.424874053935 -10.2247314429156 4.82769543029595
endloop
endfacet
facet normal -0.258819045102522 0.965925826289068 -4.16426776079497e-16
outer loop
vertex 74.9001426110193 -10.0305086527633 4.82769543029595
vertex 73.424874053935 -10.2247314429156 16.827695430296
vertex 74.9001426110193 -10.0305086527633 16.827695430296
endloop
endfacet
facet normal 0.258819045102518 0.965925826289069 -3.70934775331317e-16
outer loop
vertex 71.9496054968506 -10.0305086527633 4.82769543029595
vertex 73.424874053935 -10.2247314429156 16.827695430296
vertex 73.424874053935 -10.2247314429156 4.82769543029595
endloop
endfacet
facet normal -3.29711066138937e-16 1.0 -3.91931083368939e-16
outer loop
vertex 73.424874053935 -10.2247314429156 16.827695430296
vertex 71.9496054968506 -10.0305086527633 4.82769543029595
vertex 71.9496054968506 -10.0305086527633 16.8276954302959
endloop
endfacet
facet normal 0.499999999999999 0.866025403784439 -2.8694954318083e-16
outer loop
vertex 70.5748740539349 -9.46107624448694 16.8276954302959
vertex 71.9496054968506 -10.0305086527633 4.82769543029595
vertex 70.5748740539349 -9.46107624448695 4.82769543029595
endloop
endfacet
facet normal 0.258819045102518 0.965925826289069 -3.70934775331317e-16
outer loop
vertex 71.9496054968506 -10.0305086527633 4.82769543029595
vertex 70.5748740539349 -9.46107624448694 16.8276954302959
vertex 71.9496054968506 -10.0305086527633 16.8276954302959
endloop
endfacet
facet normal 0.707106781186547 0.707106781186548 -1.92466157011532e-16
outer loop
vertex 69.3943654011717 -8.55524009567894 16.827695430296
vertex 70.5748740539349 -9.46107624448695 4.82769543029595
vertex 69.3943654011717 -8.55524009567894 4.82769543029595
endloop
endfacet
facet normal 0.499999999999999 0.866025403784439 -2.8694954318083e-16
outer loop
vertex 70.5748740539349 -9.46107624448695 4.82769543029595
vertex 69.3943654011717 -8.55524009567894 16.827695430296
vertex 70.5748740539349 -9.46107624448694 16.8276954302959
endloop
endfacet
facet normal 0.866025403784437 0.500000000000003 -1.69720156637442e-16
outer loop
vertex 68.4885292523636 -7.37473144291562 4.82769543029595
vertex 69.3943654011717 -8.55524009567894 16.827695430296
vertex 69.3943654011717 -8.55524009567894 4.82769543029595
endloop
endfacet
facet normal 0.707106781186547 0.707106781186548 -1.92466157011532e-16
outer loop
vertex 69.3943654011717 -8.55524009567894 16.827695430296
vertex 68.4885292523636 -7.37473144291562 4.82769543029595
vertex 68.4885292523636 -7.37473144291562 16.827695430296
endloop
endfacet
facet normal 0.866025403784437 0.500000000000003 -1.69720156637442e-16
outer loop
vertex 68.4885292523636 -7.37473144291562 4.82769543029595
vertex 67.9190968440872 -6.0 16.827695430296
vertex 68.4885292523636 -7.37473144291562 16.827695430296
endloop
endfacet
facet normal 0.965925826289068 0.258819045102521 -1.07606078692811e-16
outer loop
vertex 67.9190968440872 -6.0 16.827695430296
vertex 68.4885292523636 -7.37473144291562 4.82769543029595
vertex 67.9190968440872 -6.0 4.82769543029595
endloop
endfacet
facet normal 0.965925826289068 0.258819045102521 -1.07606078692811e-16
outer loop
vertex 67.9190968440872 -6.0 4.82769543029595
vertex 67.7248740539349 -4.52473144291564 16.8276954302959
vertex 67.9190968440872 -6.0 16.827695430296
endloop
endfacet
facet normal 1.0 4.27733274991051e-16 9.62330785057639e-18
outer loop
vertex 67.7248740539349 -4.52473144291564 16.8276954302959
vertex 67.9190968440872 -6.0 4.82769543029595
vertex 67.7248740539349 -4.52473144291564 4.82769543029595
endloop
endfacet
facet normal 1.0 -2.85155516660701e-16 9.62330785057664e-18
outer loop
vertex 67.7248740539349 -4.52473144291564 4.82769543029595
vertex 67.9190968440872 -3.04946288583126 16.8276954302959
vertex 67.7248740539349 -4.52473144291564 16.8276954302959
endloop
endfacet
facet normal 0.965925826289069 -0.258819045102519 1.17229386543388e-16
outer loop
vertex 67.9190968440872 -3.04946288583126 16.8276954302959
vertex 67.7248740539349 -4.52473144291564 4.82769543029595
vertex 67.9190968440872 -3.04946288583126 4.82769543029595
endloop
endfacet
facet normal 0.866025403784438 -0.5 1.94215849348001e-16
outer loop
vertex 68.4885292523635 -1.67473144291564 4.82769543029594
vertex 67.9190968440872 -3.04946288583126 16.8276954302959
vertex 67.9190968440872 -3.04946288583126 4.82769543029595
endloop
endfacet
facet normal 0.965925826289069 -0.258819045102519 1.17229386543388e-16
outer loop
vertex 67.9190968440872 -3.04946288583126 16.8276954302959
vertex 68.4885292523635 -1.67473144291564 4.82769543029594
vertex 68.4885292523635 -1.67473144291564 16.8276954302959
endloop
endfacet
facet normal 0.866025403784438 -0.5 1.94215849348001e-16
outer loop
vertex 68.4885292523635 -1.67473144291564 4.82769543029594
vertex 69.3943654011716 -0.494222790152302 16.8276954302959
vertex 68.4885292523635 -1.67473144291564 16.8276954302959
endloop
endfacet
facet normal 0.707106781186547 -0.707106781186548 2.44956927105587e-16
outer loop
vertex 69.3943654011716 -0.494222790152302 16.8276954302959
vertex 68.4885292523635 -1.67473144291564 4.82769543029594
vertex 69.3943654011716 -0.494222790152307 4.82769543029594
endloop
endfacet
facet normal 0.499999999999999 -0.866025403784439 2.72952004489082e-16
outer loop
vertex 70.574874053935 0.411613358655679 16.8276954302959
vertex 69.3943654011716 -0.494222790152307 4.82769543029594
vertex 70.574874053935 0.411613358655674 4.82769543029594
endloop
endfacet
facet normal 0.707106781186547 -0.707106781186548 2.44956927105587e-16
outer loop
vertex 69.3943654011716 -0.494222790152307 4.82769543029594
vertex 70.574874053935 0.411613358655679 16.8276954302959
vertex 69.3943654011716 -0.494222790152302 16.8276954302959
endloop
endfacet
facet normal -0.793353340291236 0.60876142900872 -3.40005801291454e-16
outer loop
vertex 54.8841967250679 -0.800822206642579 16.8276954302959
vertex 55.2822333668157 -0.282090755796341 4.82769543029594
vertex 54.8841967250679 -0.800822206642584 4.82769543029594
endloop
endfacet
facet normal -0.793353340291236 0.60876142900872 -3.40005801291454e-16
outer loop
vertex 55.2822333668157 -0.282090755796341 4.82769543029594
vertex 54.8841967250679 -0.800822206642579 16.8276954302959
vertex 55.2822333668157 -0.282090755796343 16.8276954302959
endloop
endfacet
endsolid CCFL Mounting Clip
